/* XPM */
static char *result[] = {
/* columns rows colors chars-per-pixel */
"64 64 7 1 ",
"  c #3D7913",
". c #469C0B",
"X c #4EAD0C",
"o c #92E558",
"O c #E1E1E1",
"+ c gray95",
"@ c white",
/* pixels */
"XXXXXXX XXXXXXXXXX XXXXXXXXXXXXXXXXXXXXXXXXXXXXXXXXXXXoXXXXXXXXX",
"XX.XX XX XXXX.X XX XXXX XXXoXXXoXX. X.X XXX.XoXXXoXX.XoXX X.Xo X",
"XXX.X XX XXoX.X X.XoXX X.XoX.XoXXo.X .XX oXX.XoXXoX. XXX.X X.o X",
"XXX.XoXX.XoXXXoXXX.XoX .X oX.XoXXoXo XX. oXX.XoXXoX.X XX.X X.XXX",
"XXXXXoX.XXoX.XoXXX.XoXX. XXXXXXXXXXXoX.XXX XX XXX XXX .XXXoXXXoX",
"XoXXXXX.XXXX.XoXXXXXXXXX . XXXX  X.XoX.XX. XX .XX XXX.XXXXoXX oX",
"XoX X.XXX XXXXXXXo XX.XXX.X .oX X .X.XXX .Xo.X.XoX.XX.XX.XX. XoX",
"XoX X.XXo XXoXXXXoX X.XoX.X .XoXX .X.XX @@@@@@.XXoX.XXoX.X.X XXX",
"XXXXXXXoX XXXoX X.X X@@@@@@@@XoXXXXXX@@@@@@@@@@@XoX. XoX X.XXoXX",
"X X.XXXoXXX.XoX XX.@@@@@@@@@@@XXX.XX@@@@@++++++@@OXX XX XXXXo. X",
"X .XXXXXXXXX.XX @@@@@@++++++@@@@XX@@@@+++++++++++O@@XX. XoXXo. X",
"X .X.XX .XXX.XXX@@@@++++++++++@@@@@@++++++++++++OO+@@@XXoXXXX.XX",
"XXXXX. X. X@@@@@@@+++++++++++++@@@+++++++++++++OO++++@@XoX. XoXX",
"XXoXX. X.X@@@@@@+++++++++++++++++++++++++++OOOOO++++++@@@X. XXoX",
"XoXX XXXX@@@+++++++++++++++++++++++++++++OOOO++++++++++@@@X XXoX",
"XoX XXXXX@@+++++++++++++++++++++++++++++++++++++++++++++@@XXXXXX",
"XXX XXXXX@++++++++OO+++++++++++++++++++++++++++++++++++++@@XXXXX",
"XXoX X.XXO+++++++++O++++++++++OOO++++++++++++++++++++++++@@XXXoX",
"XXo XX.@@OO++++++++O++++++++++++OO+++++++OOOOOO++++++++++@@.XoXX",
"XXX XO@@@@OO++++++OO+++++++++++++O++++++OO++++++++++++++@@ .XoX ",
" X.XXO@@+++O++++OOO++++++++++++++O++++++O++++++++++++++@@@ XXXX ",
"X X.XOO+++++OOOO+++++++++++++++++O+++++OO+++++++++++++@@XXXX. X ",
"X X.XOOOO+++++++++++++++++++++++OO+++++O++++++++++++OO. .XX.X XX",
"XXoX XOOOOOOO++++++++++++OOOOOOOO++++++O+++++++OOOOOOX.X. X.XXXX",
"XoXX .X OOOOOOOOOOOOOOOOOOOOOOOO+++++OOOOOOOOOOOOOOO.XXX XXXXo X",
"XoXXX.X oX XOOOOOOOOOOOOOOX.XOOOOOOOOOOO. oXXoX XXXX.XXX .XX oX ",
"XXX.X.XXoX.XX XXXX XoXX XoXXXXOOOOOOOOOX.XoX.XXXXXoXX Xo.XX XXX ",
"XX.XXXXX.XX.XoXXX X.XXX XXX XXoXXX X X.XXXX.XXXXXXoX XoX.XX XXXX",
"XX.XXo X.XX.XXoXX .XXX. XX X.XXXX .XXo.XXoX.X X.XXoX XoXXX.oXX.X",
"X XXoXX XXXX XoXXX.XoX.XoX X. XXX .XoX.X oXX X.XX XX.XX X .XoX. ",
"X XXoXX XXoXX XXXXXXoXXXoXXXXo XXXXXoXXX XXX X.XX XX.X XXX XoX X",
"X XXXXXXXXoXX XXXXXXXXXXXXXXXo XXXXXXXXXXXXXXXXXXXXXXX XXX XXX X",
"XXXXXX XoXXXXXXXXXXXXXXXXXXXXXXXXXXXX XXoXXXXXXXX XXXXXXXXoXX XX",
"XoX.X XXoXXXo XXXX@@@@@@@@@@@@@XXXXX XXoXXX oXXX XXXoX XXoX X XX",
"Xo.XX XXXX.Xo .XX.@@+++++++++@@@@o.X .XoX.X XoX. XXXXo XXo X. XX",
"XX.XXX.XX.XXX. XX@@++++++++++++@@@.XX.XXXX.XXoX.XXX.XoXXXX X.XoX",
"XXXXoXX.X.X X.X XO+++++++++++++++@@XoXX.XX.XXX XX .XXXX .XXoXXoX",
"oX.XXoX.XXo XXX @O++++++++++++++++@@X@@@@@@@X XXX .XXX X.XoXX oX",
"XoX.XoXXXoXXXXo@@OO++++++++++++++++@O@@+++@@@ .XXXXXXX XXXoXX XX",
"XoX. XXXXoX.@@@@++O+++++++++++++++++O+++++++@@XXXXXX.XoXXXXXXXXX",
"XXXXX X.X X@@@++++OO++++++++++++++++O+++++++@@@XXo XX.XoX. XX.X ",
"XoXXX .XXX@@@++++++OOO++++++++++++++O++++++++@@XXoX X.XoX.X X. X",
"X oX.X.X@@++++O++++++++OOOOOO++++++++OO++++++++@@XX X.XXXXX X. X",
" XoX.XX@@+++++OO++++++++++++++++++++++OOO++++++@@XXXXXXX X.XXXXX",
" XXXXX@@+++++++O++++++++++++++++++++++++OOOOOO++@@@.X oX .XXXXoX",
"X.XX X@++++++++O+++++++++++++++++++++++++++++++++@@@ oXX .X .XoX",
"X.XX @@++++++++OO+++++++++++++++++++++++++++++++++@@@oXXXXX .XXX",
"XXXX +++++++++++O++++++++++++++++++++++++++++++++++@@XXXXXXXXXXX",
"XXXXO+++++++++++O++++++++++++++++++++++OOOOOO+++++++@@XXXXX XXXX",
"XXXXOO++++++++++O+++++++++++++++++++OOOO++++OO++++++++X XoXX XXX",
"X .XoO++++++++++O+++++++++++++++++OOO+++++++++++++++++ XXoXX oX ",
" X.XXXO++++++++OO++++++++++++++++O++++++++++++++++++++ .XoX.XoX ",
" XXX XOO+++++++O+++++++++++++++OOO++++++++++++++++++OOX.XXX.XXX ",
"XXXX .XOO+++++OO++++++++++++++OOOOOO++++++++OOOO++OOOOX.XXX.XXXX",
"XXoXX.XXOO+++OO++++++++++++++OOOOOOOO++++++OOOOOOOOOOX XXoXX .XX",
"XXXoXXXo OOOO+++++++++++++++OOOXXX.OOOOOOOOOO.XOOOOX.X XXoXX X.X",
"XXXoXXoXXOOOO++++++++++++++OOOXX.XXXOOOOOOOOX XXX XX.XX.XXX.XX.X",
"XX.XXXoX.XOOOO++++++++++OOOOOX X.XXX XXoXX.X XX.XXXXXXX.XX.XXXXX",
"XXX.XXX.XXXXOOOOOOOOOOOOOOOOX. X.XXXXX XXXXX X.XXXXXXXXXXX.XX XX",
"XXX.X X.X XXXOOOOOOOOOOOOXXXX.XXXXoXX.X X.XXXX.XXX.XXX.XXoXXXX X",
"X XXX XXX X.XX.XXX X.X.XoX. X.Xo Xo.X.X .oX.XoXXXX.XoX.X XoX.X X",
"X XXX.XXoX.XXXXXX X.XXXoXX.X XoXX o.XXoX.XoX.XoXX XXoX. XXoX.XXX",
"X XXX.XXoX.XX XXX X.XXXoXXXX XoXX X.XXoXXXoX.XoXXX XXXX XXXXXXXX",
"XXXXXXXXXXXXX XXXXXXXXXXXXXXXXXXXXXXXXXXXXXXXXXXXX XXXXXXXXXXXXX"
};
