/* XPM */
static char *result[] = {
/* columns rows colors chars-per-pixel */
"64 64 7 1 ",
"  c #3D7913",
". c #469C0B",
"X c #4EAD0C",
"o c #92E558",
"O c #E1E1E1",
"+ c gray95",
"@ c white",
/* pixels */
"XXXXXXX XXXXXXXXXX XXXXXXXXXXXXXXXXXXXXXXXXXXXXXXXXXXXoXXXXXXXXX",
"XX.XX XX XXXX.X XX XXXX XXXoXXXoXX. X.X XXX.XoXXXoXX.XoXX X.Xo X",
"XXX.X XX XXoX.X X.XoXX X.XoX.XoXXo.X .XX oXX.XoXXoX. XXX.X X.o X",
"XXX.XoXX.XoXXXoXXX.XoX .X oX.XoXXoXo XX. oXX.XoXXoX.X XX.X X.XXX",
"XXXXXoX.XXoX.XoXXX.XoXX. XXXXXXXXXXXoX.XXX XX XXX XXX .XXXoXXXoX",
"XoXXXXX.XXXX.XoXXXXXXXXX . XXXX  X.XoX.XX. XX .XX XXX.XXXXoXX oX",
"XoX X.XXX XXXXXXXo XX.XXX.X .oX X .X.XXX .Xo.X.XoX.XX.XX.XX. XoX",
"XoX X.XXo XXoXXXXoX X.XoX.X .XoXX .X.XX XXoX.X.XXoX.XXoX.X.X XXX",
"XXXXXXXoX XXXoX X.X XXXoXXXXXXoXXXXXXoX X@@@@@@@XoX. XoX X.XXoXX",
"X X.XXXoXXX.XoX XX.XX@@@@@@@@@XXX.XXoX@@@@@@@@@@@@XX XX XXXXo. X",
"X .XXXXXXXXX.XX XX.@@@@@@@@@@@@XXX.Xo@@@@@+++++++@@OXX. XoXXo. X",
"X .X.XX .XXX.XXX@@@@@@++++++@@@@@X.@@@@++++++++++++O@@XXoXXXX.XX",
"XXXXX. X. XXoXX @@@@+++++++++++@@@@@@+++++++++++++OO+@@@oX. XoXX",
"XXoXX. X.X@@@@@@@@++++++++++++++@@@++++++++++++++OO++++@@X. XXoX",
"XoXX XXXX@@@@@@@++++++++++++++++++++++++++++OOOOOO++++++@@@ XXoX",
"XoX XXXX@@@+++++++++++++++++++++++++++++++OOOO+++++++++++@@@XXXX",
"XXX XXXX@@++++++++++++++++++++++++++++++++++++++++++++++++@@XXXX",
"XXoX X.X@+++++++++OO+++++++++++++++++++++++++++++++++++++++@@XoX",
"XXo XX. O++++++++++O+++++++++++OOO+++++++++++++++++++++++++@@oXX",
"XXX XX@@OO+++++++++O+++++++++++++OO+++++++OOOOOOO++++++++++@@oX ",
" X.XO@@@@OO+++++++OO++++++++++++++O++++++OO+++++++++++++++@@XXX ",
"X X.O@@+++O+++++OOO+++++++++++++++O++++++O+++++++++++++++@@@. X ",
"X X.OO+++++OOOOO++++++++++++++++++O+++++OO++++++++++++++@@X.X XX",
"XXoXOOOO+++++++++++++++++++++++++OO+++++O+++++++++++++OO. X.XXXX",
"XoXX OOOOOOOO++++++++++++OOOOOOOOO++++++O++++++++OOOOOOX XXXXo X",
"XoXXX.XOOOOOOOOOOOOOOOOOOOOOOOOOO+++++OOOOOOOOOOOOOOOOXX .XX oX ",
"XXX.X.XXoX.OOOOOOOOOOOOOOOXXXXOOOOOOOOOOOXoX.XXXXXoXX Xo.XX XXX ",
"XX.XXXXX.XX.XoXXX X.XXX XXX XXoOOOOOOOOOXXX.XXXXXXoX XoX.XX XXXX",
"XX.XXo X.XX.XXoXX .XXX. XX X.XXXX .XXo.XXoX.X X.XXoX XoXXX.oXX.X",
"X XXoXX XXXX XoXXX.XoX.XoX X. XXX .XoX.X oXX X.XX XX.XX X .XoX. ",
"X XXoXX XXoXX XXXXXXoX@@@@@@@@@XXXXXoXXX XXX X.XX XX.X XXX XoX X",
"X XXXXXXXXoXX XXXXX@@@@@@@@@@@@@@XXXXXXXXXXXXXXXXXXXXX XXX XXX X",
"XXXXXX XoXXXXXXXXXX@@@+++++++++@@@XXX XXoXXXXXXXX XXXXXXXXoXX XX",
"XoX.X XXoXXXo XXXXX@@++++++++++++@@X XXoXXX oXXX XXXoX XXoX X XX",
"Xo.XX XXXX.Xo .XX.X+++++++++++++++@@ .XoX.X XoX. XXXXo XXo X. XX",
"XX.XXX.XX.XXX. XXX@++++++++++++++++@@.X@@@@@@@X.XXX.XoXXXX X.XoX",
"XXXXoXX.X.X X.X X@@OO+++++++++++++++@O@@@+++@@@XX .XXXX .XXoXXoX",
"oX.XXoX.XXo XX@@@@+OO++++++++++++++++O++++++++@@X .XXX X.XoXX oX",
"XoX.XoXXXoXXX@@@+++OOO+++++++++++++++O++++++++@@@XXXXX XXXoXX XX",
"XoX. XXXXoX.@@@++++++OOO+++++++++++++OO++++++++@@XXX.XoXXXXXXXXX",
"XXXXX X.X X@@++++++++++OOO++++OOO+++++OO++++++++@@ XX.XoX. XX.X ",
"XoXXX .XXX@@++++O++++++++OOOOOO++++++++OO++++++++@@ X.XoX.X X. X",
"X oX.X.XX.@@++++O++++++++OOOOOO++++++++OO++++++++@@ X.XXXXX X. X",
" XoX.XXXX@@+++++OO++++++++++++++++++++++OOO++++++@@XXXXX X.XXXXX",
" XXXXXXo@@+++++++O++++++++++++++++++++++++OOOOOO++@@@ oX .XXXXoX",
"X.XX XoX@++++++++O+++++++++++++++++++++++++++++++++@@@XX .X .XoX",
"X.XX Xo@@++++++++OO+++++++++++++++++++++++++++++++++@@@XXXX .XXX",
"XXXX XX+++++++++++O++++++++++++++++++++++++++++++++++@@XXXXXXXXX",
"XXXXXXO+++++++++++O++++++++++++++++++++++OOOOOO+++++++@XXXX XXXX",
"XXXXoXOO++++++++++O++++++++++++++++++OOOOO++++OO+++++++ XoXX XXX",
"X .XoXoO++++++++++O++++++++++++++++OOO+++++++++++++++++XXoXX oX ",
" X.XXXoOO+++++++++O+++++++++++++++OO+++++++++++++++++++.XoX.XoX ",
" XXX X.XO++++++++OO+++++++++++++++O++++++++++++++++++++.XXX.XXX ",
"XXXX .X OO+++++++O+++++++++++++++OO+++++++++++++++++++O.XXX.XXXX",
"XXoXX.XX OO+++++OO++++++++++++++OOOOO+++++++++OOOO++OOOXXoXX .XX",
"XXXoXXXo XOO+++OO++++++++++++++OOOOOOO+++++++OOOOOOOOOOXXoXX X.X",
"XXXoXXoXXX OOOO+++++++++++++++OOOXXXOOOOOOOOOOOXXOOOOXX.XXX.XX.X",
"XX.XXXoX.XXOOOO++++++++++++++OOO.XXX OOOOOOOOOX.XXXXXXX.XX.XXXXX",
"XXX.XXX.XXXXOOOO++++++++++OOOOOX.XXXXX XXXXX X.XXXXXXXXXXX.XX XX",
"XXX.X X.X XXXXOOOOOOOOOOOOOOOOXXXXoXX.X X.XXXX.XXX.XXX.XXoXXXX X",
"X XXX XXX X.XX.OOOOOOOOOOOO X.Xo Xo.X.X .oX.XoXXXX.XoX.X XoX.X X",
"X XXX.XXoX.XXXXXX X.XXXoXX.X XoXX o.XXoX.XoX.XoXX XXoX. XXoX.XXX",
"X XXX.XXoX.XX XXX X.XXXoXXXX XoXX X.XXoXXXoX.XoXXX XXXX XXXXXXXX",
"XXXXXXXXXXXXX XXXXXXXXXXXXXXXXXXXXXXXXXXXXXXXXXXXX XXXXXXXXXXXXX"
};
