/* XPM */
static char *result[] = {
/* columns rows colors chars-per-pixel */
"64 64 7 1 ",
"  c #3D7913",
". c #469C0B",
"X c #4EAD0C",
"o c #92E558",
"O c #E1E1E1",
"+ c gray95",
"@ c white",
/* pixels */
"XXXXXXX XXXXXXXXXX XXXXXXXXXXXXXXXXXXXXXXXXXXXXXXXXXXXoXXXXXXXXX",
"XX.XX XX XXXX.X XX XXXX XXXoXXXoXX. X.X XXX.XoXXXoXX.XoXX X.Xo X",
"XXX.X XX XXoX.X X.XoXX X.XoX.XoXXo.X .XX oXX.XoXXoX. XXX.X X.o X",
"XXX.XoXX.XoXXXoXXX.XoX .X oX.XoXXoXo XX. oXX.XoXXoX.X XX.X X.XXX",
"XXXXXoX.XXoX.XoXXX.XoXX. XXXXXXXXXXXoX.XXX XX XXX XXX .XXXoXXXoX",
"XoXXXXX.XXXX.XoXXXXXXXXX . XXXX  X.XoX.XX. XX .XX XXX.XXXXoXX oX",
"XoX X.XXX XXXXXXXo XX.XXX.X .oX X .X.XXX@@@@@@@XoX.XX.XX.XX. XoX",
"XoX X.XXo XXoXXXXoX@@@@@@@@@.XoXX .X.@@@@@@@@@@@@oX.XXoX.X.X XXX",
"XXXXXXXoX XXXoX X@@@@@@@@@@@@XoXXXXX@@@@@+++++++@@O. XoX X.XXoXX",
"X X.XXXoXXX.X@@@@@@@+++++++@@@@XX.@@@@++++++++++++O@@@X XXXXo. X",
"X .XXXXXXXXX.@@@@@+++++++++++@@@@@@@+++++++++++++OO++@@@XoXXo. X",
"X .X.XX @@@@@@@@++++++++++++++@@@@++++++++++++++OO+++++@@XXXX.XX",
"XXXXX. @@@@@@+++++++++++++++++++++++++++++++OOOOO+++++++@@@ XoXX",
"XXoXX.@@@++++++++++++++++++++++++++++++++OOOOO+++++++++++@@@XXoX",
"XoXX X@@++++++++++++++++++++++++++++++++++++++++++++++++++@@XXoX",
"XoX XX@+++++++++OO+++++++++++++++++++++++++++++++++++++++++@@@XX",
"XXX XXO++++++++++O+++++++++++OOO+++++++++++++++++++++++++++@@@XX",
"XXo@@@OO+++++++++O+++++++++++++OOO+++++++OOOOOOO+++++++++++@@@oX",
"XO@@@@@OO+++++++OO++++++++++++++OO++++++OOO+++++++++++++++@@XoXX",
"XO@@++++O++++OOOO+++++++++++++++OO++++++O++++++++++++++++@@@XoX ",
" OO++++++OOOO+++++++++++++++++++OO+++++OO+++++++++++++++@@ XXXX ",
"XOOOOO+++++++++++++++++++++++++OOO+++++O++++++++++++++OOXXXX. X ",
"X OOOOOOOO+++++++++++++OOOOOOOOO+++++++O++++++++OOOOOOO .XX.X XX",
"XXoXOOOOOOOOOOOOOOOOOOOOOOOOOOO++++++OOOOOOOOOOOOOOOOO.X. X.XXXX",
"XoXX .X XOOOOOOOOOOOOOOOOo .OOOOOOOOOOOOX XoXoX oXXX.XXX XXXXo X",
"XoXXX.X oX XX XXXX.XoX.XXoX.XOOOOOOOOOOX. oXXoX XXXX.XXX .XX oX ",
"XXX.X.XXoX.XX XXXX XoXX XoXXXXoXXXXX XXX.XoX.XXXXXoXX Xo.XX XXX ",
"XX.XXXXX.XX.XoXXX X.XXX XXX XXoXXX X X.XXXX.XXXXXXoX XoX.XX XXXX",
"XX.XXo X.XX.XXoXX .XXX. XX X.XXXX .XXo.XXoX.X X.XXoX XoXXX.oXX.X",
"X XXoXX XXXX XoXXX.Xo@@@@@@@@@@XX .XoX.X oXX X.XX XX.XX X .XoX. ",
"X XXoXX XXoXX XXXXX@@@@@@@@@@@@@@XXXoXXX XXX X.XX XX.X XXX XoX X",
"X XXXXXXXXoXX XXXXX@@++++++++++@@@XXXXXXXXXXXXXXXXXXXX XXX XXX X",
"XXXXXX XoXXXXXXXX@@@+++++++++++++@@XX XXoXXXXXXXX XXXXXXXXoXX XX",
"XoX.X XXoXXXo XXX@@@+++++++++++++@@X XXoXXX oXXX XXXoX XXoX X XX",
"Xo.XX XXXX.Xo .XXOO+++++++++++++++@@@.XoX.X XoX. XXXXo XXo X. XX",
"XX.XXX.XX.XXX. X@OO++++++++++++++++@@@XX@@@@@@@@XXX.XoXXXX X.XoX",
"XXXXoXX.X.X X.X@@OOO+++++++++++++++++@O@@@@+++@@@ .XXXX .XXoXXoX",
"oX.XXoX.XXo @@@@+++O++++++++++++++++++O+++++++++@@.XXX X.XoXX oX",
"XoX.XoXXXoX@@@+++++OO+++++++++++++++++O+++++++++@@@XXX XXXoXX XX",
"XoX. XXXXo@@@+++++++OOO+++++++++++++++OO+++++++++@@X.XoXXXXXXXXX",
"XXXXX X.X@@+++++++++++OOO++++OOOO++++++OO+++++++++@@X.XoX. XX.X ",
"XoXXX .X@@++++O+++++++++OOOOOOO+++++++++OOO++++++++@@.XoX.X X. X",
"X oX.X.@@+++++OO+++++++++++++++++++++++++OOOO++++++@@.XXXXX X. X",
" XoX.@@@+++++++O++++++++++++++++++++++++++++OOOOOO++@@@@ X.XXXXX",
" XXXX@@++++++++O+++++++++++++++++++++++++++++++++++++@@@@.XXXXoX",
"X.XX@@@++++++++OO++++++++++++++++++++++++++++++++++++++@@@X .XoX",
"X.XX++++++++++++O+++++++++++++++++++++++++++++++++++++++@@X .XXX",
"XXXO++++++++++++O++++++++++++++++++++++++++OOOOOO++++++++@@XXXXX",
"XXXOO+++++++++++O+++++++++++++++++++++OOOOOO++++OO+++++++++ XXXX",
"XXXXO+++++++++++O++++++++++++++++++OOOO++++++++++++++++++++X XXX",
"X .XOOO+++++++++O+++++++++++++++++OOO++++++++++++++++++++++X oX ",
" X.XXOO++++++++OO+++++++++++++++++O++++++++++++++++++++++++.XoX ",
" XXX OO++++++++OO+++++++++++++++++O++++++++++++++++++++++++.XXX ",
"XXXX OOO+++++++O+++++++++++++++++OO++++++++++++++++++++++OO.XXXX",
"XXoXX.XOO+++++OO++++++++++++++++OOOOOO++++++++++OOOO+++OOOOX .XX",
"XXXoXXXoOO+++OO++++++++++++++++OOOOOOOO++++++++OOOOOOOOOOOXX X.X",
"XXXoXXoXXOOOO++++++++++++++++OOOOXXX OOOOOOOOOOOO XOOOOOXXX.XX.X",
"XX.XXXoX.OOOO+++++++++++++++OOOO.XXX XOOOOOOOOOOXXXXXXX.XX.XXXXX",
"XXX.XXX.XXOOOO+++++++++++OOOOOOX.XXXXX XXXXX X.XXXXXXXXXXX.XX XX",
"XXX.X X.X XXOOOOOOOOOOOOOOOOO.XXXXoXX.X X.XXXX.XXX.XXX.XXoXXXX X",
"X XXX XXX X.XOOOOOOOOOOOOO. X.Xo Xo.X.X .oX.XoXXXX.XoX.X XoX.X X",
"X XXX.XXoX.XXXXXX X.XXXoXX.X XoXX o.XXoX.XoX.XoXX XXoX. XXoX.XXX",
"X XXX.XXoX.XX XXX X.XXXoXXXX XoXX X.XXoXXXoX.XoXXX XXXX XXXXXXXX",
"XXXXXXXXXXXXX XXXXXXXXXXXXXXXXXXXXXXXXXXXXXXXXXXXX XXXXXXXXXXXXX"
};
