/* XPM */
static char *result[] = {
/* columns rows colors chars-per-pixel */
"64 64 7 1 ",
"  c #3D7913",
". c #469C0B",
"X c #4EAD0C",
"o c #92E558",
"O c #E1E1E1",
"+ c gray95",
"@ c white",
/* pixels */
"XXXXXXX XXXXXXXXXX XXXXXXXXXXXXXXXXXXXXXXXXXXXXXXXXXXXoXXXXXXXXX",
"XX.XX XX XXXX.X XX XXXX XXXoXXXoXX. X.X XXX.XoXXXoXX.XoXX X.Xo X",
"XXX.X XX XXoX.X X.XoXX X.XoX.XoXXo.X .XX oXX.XoXXoX. XXX.X X.o X",
"XXX.XoXX.XoXXXoXXX.XoX .X oX.XoXXoXo XX. oXX.XoXXoX.X XX.X X.XXX",
"XXXXXoX.XXoX.XoXXX.XoXX. XXXXXXXXXXXoX.XXX XX XXX XXX .XXXoXXXoX",
"XoXXXXX.XXXX.XoXXXXXXXXX . XXXX  X.XoX.XX. XX .XX XXX.XXXXoXX oX",
"XoX X.XXX XXXXXXXo XX.XXX.X .oX X .X.@@@@@Xo.X.XoX.XX.XX.XX. XoX",
"XoX X.XXo XXoXXXXo@@@@@@@@X .XoXX @@@@@@@@@@.X.XXoX.XXoX.X.X XXX",
"XXXXXXXoX XXXoX @@@@@@@@@@@XXXoXX@@@@@+++++@@OXXXoX. XoX X.XXoXX",
"X X.XXXoXXX.Xo@@@@@++++++@@@@XX@@@@++++++++++O@@XXXX XX XXXXo. X",
"X .XXXXXXXXX.X@@@++++++++++@@@@@@+++++++++++OO+@@@oXXX. XoXXo. X",
"X .X.XX .@@@@@@+++++++++++++@@@++++++++++++OO++++@@XX.XXoXXXX.XX",
"XXXXX. X@@@@@@++++++++++++++++++++++++++OOOO++++++@@@.XXoX. XoXX",
"XXoXX. @@@++++++++++++++++++++++++++++OOO++++++++++@@@oXXX. XXoX",
"XoXX XX@@+++++++++++++++++++++++++++++++++++++++++++@@XoXXX XXoX",
"XoX XXX@+++++++OO++++++++++++++++++++++++++++++++++++@@oXXXXXXXX",
"XXX XXXO++++++++O++++++++++OOO+++++++++++++++++++++++@@XXXXXXXXX",
"XXoX @@OO+++++++O++++++++++++OO+++++++OOOOO++++++++++@@.XX.XXXoX",
"XXoO@@@@OO+++++OO+++++++++++++O++++++OO+++++++++++++@@X.X X.XoXX",
"XXXO@@+++O++++OO++++++++++++++O++++++O+++++++++++++@@@XXXo .XoX ",
" X.OO+++++OOOO++++++++++++++++O+++++OO++++++++++++@@XoX Xo XXXX ",
"X XOOOO++++++++++++++++++++++OO+++++O+++++++++++OO XXoX XXXX. X ",
"X X.OOOOOOO+++++++++++OOOOOOOO++++++O++++++OOOOOOX XXX. .XX.X XX",
"XXoX XOOOOOOOOOOOOOOOOOOOOOOO+++++OOOOOOOOOOOOOOoX .XX.X. X.XXXX",
"XoXX .X XXOOOOOOOOOOOOOXXoOOOOOOOOOOOXoXX XoXoX oXXX.XXX XXXXo X",
"XoXXX.X oX XX XXXX.XoX.XXoXOOOOOOOOOXXoX. oXXoX XXXX.XXX .XX oX ",
"XXX.X.XXoX.XX XXXX XoXX XoXXXXoXXXXX XXX.XoX.XXXXXoXX Xo.XX XXX ",
"XX.XXXXX.XX.XoXXX X.XXX XXX XXoXXX X X.XXXX.XXXXXXoX XoX.XX XXXX",
"XX.XXo X.XX.XXoXX .XXX. XX X.XXXX .XXo.XXoX.X X.XXoX XoXXX.oXX.X",
"X XXoXX XXXX XoXXX.XoX.XoX X. XXX .XoX.X oXX X.XX XX.XX X .XoX. ",
"X XXoXX XXoXX XXXXXXoXXXoXXXXo XXXXXoXXX XXX X.XX XX.X XXX XoX X",
"X XXXXXXXXoXX XXXXXX@@@@@@@@@o XXXXXXXXXXXXXXXXXXXXXXX XXX XXX X",
"XXXXXX XoXXXXXXXXX@@@@@@@@@@@@@XXXXXX XXoXXXXXXXX XXXXXXXXoXX XX",
"XoX.X XXoXXXo XXXX@@+++++++++@@@XXXX XXoXXX oXXX XXXoX XXoX X XX",
"Xo.XX XXXX.Xo .XX@@++++++++++++@@o.X .XoX.X XoX. XXXXo XXo X. XX",
"XX.XXX.XX.XXX. XXO++++++++++++++@@.XX.XXXX.XXoX.XXX.XoXXXX X.XoX",
"XXXXoXX.X.X X.X @O+++++++++++++++@@Xo@@@@@@@XX XX .XXXX .XXoXXoX",
"oX.XXoX.XXo XXX@@OO+++++++++++++++@O@@@+++@@@ XXX .XXX X.XoXX oX",
"XoX.XoXXXoXX@@@@++O++++++++++++++++O++++++++@@.XXXXXXX XXXoXX XX",
"XoX. XXXXoX@@@++++OO+++++++++++++++O++++++++@@@XXXXX.XoXXXXXXXXX",
"XXXXX X.X @@@++++++OOO+++++++++++++OO++++++++@@XXo XX.XoX. XX.X ",
"XoXXX .XX@@++++++++++OOO++++OOO+++++OO++++++++@@XoX X.XoX.X X. X",
"X oX.X.X@@++++O++++++++OOOOOO++++++++OO++++++++@@XX X.XXXXX X. X",
" XoX.XX@@+++++OO++++++++++++++++++++++OOO++++++@@XXXXXXX X.XXXXX",
" XXXXX@@+++++++O++++++++++++++++++++++++OOOOOO++@@@.X oX .XXXXoX",
"X.XX X@++++++++O+++++++++++++++++++++++++++++++++@@@ oXX .X .XoX",
"X.XX @@++++++++OO+++++++++++++++++++++++++++++++++@@@oXXXXX .XXX",
"XXXX +++++++++++O++++++++++++++++++++++++++++++++++@@XXXXXXXXXXX",
"XXXXO+++++++++++O++++++++++++++++++++++OOOOOO+++++++@@XXXXX XXXX",
"XXXXOO++++++++++O++++++++++++++++++OOOOO++++OO++++++++X XoXX XXX",
"X .XoO++++++++++O++++++++++++++++OOO++++++++++++++++++ XXoXX oX ",
" X.XXOO+++++++++O+++++++++++++++OO++++++++++++++++++++ .XoX.XoX ",
" XXX XO++++++++OO+++++++++++++++O+++++++++++++++++++++X.XXX.XXX ",
"XXXX .OO+++++++O+++++++++++++++OO+++++++++++++++++++OOX.XXX.XXXX",
"XXoXX.XOO+++++OO++++++++++++++OOOOO+++++++++OOOO++OOOO XXoXX .XX",
"XXXoXXXoOO+++OO++++++++++++++OOOOOOO+++++++OOOOOOOOOOX XXoXX X.X",
"XXXoXXoXXOOOO+++++++++++++++OOOX.XOOOOOOOOOOO XOOOOX.XX.XXX.XX.X",
"XX.XXXoX.OOOO++++++++++++++OOO X.XXOOOOOOOOO XX.XXXXXXX.XX.XXXXX",
"XXX.XXX.XXOOOO++++++++++OOOOO. X.XXXXX XXXXX X.XXXXXXXXXXX.XX XX",
"XXX.X X.X XXOOOOOOOOOOOOOOOOX.XXXXoXX.X X.XXXX.XXX.XXX.XXoXXXX X",
"X XXX XXX X.XOOOOOOOOOOOOX. X.Xo Xo.X.X .oX.XoXXXX.XoX.X XoX.X X",
"X XXX.XXoX.XXXXXX X.XXXoXX.X XoXX o.XXoX.XoX.XoXX XXoX. XXoX.XXX",
"X XXX.XXoX.XX XXX X.XXXoXXXX XoXX X.XXoXXXoX.XoXXX XXXX XXXXXXXX",
"XXXXXXXXXXXXX XXXXXXXXXXXXXXXXXXXXXXXXXXXXXXXXXXXX XXXXXXXXXXXXX"
};
