/* XPM */
static char *result[] = {
/* columns rows colors chars-per-pixel */
"64 64 7 1 ",
"  c #3D7913",
". c #469C0B",
"X c #4EAD0C",
"o c #92E558",
"O c #E1E1E1",
"+ c gray95",
"@ c white",
/* pixels */
"XXXXXXX XXXXXXXXXX XXXXXXXXXXXXXXXXXXXXXXXXXXXXXXXXXXXoXXXXXXXXX",
"XX.XX XX XXXX.X XX XXXX XXXoXXXoXX. X.X XXX.XoXXXoXX.XoXX X.Xo X",
"XXX.X XX XXoX.X X.XoXX X.XoX.XoXXo.X .XX oXX.XoXXoX. XXX.X X.o X",
"XXX.XoXX.XoXXXoXXX.XoX .X oX.XoXXoXo XX. oXX.XoXXoX.X XX.X X.XXX",
"XXXXXoX.XXoX.XoXXX.XoXX. XXXXXXXXXXXoX.XXX XX XXX XXX .XXXoXXXoX",
"XoXXXXX.XXXX.XoXXXXXXXXX . XXXX  X.XoX.XX. XX .XX XXX.XXXXoXX oX",
"XoX X.XXX XXXXXXXo XX.XXX.X .oX X .X.XXX@@@@@@.XoX.XX.XX.XX. XoX",
"XoX X.XXo XXoXXXXoX @@@@@@@@.XoXX .X.@@@@@@@@@@@XoX.XXoX.X.X XXX",
"XXXXXXXoX XXXoX X@@@@@@@@@@@@XoXXXXX@@@@@++++++@@OX. XoX X.XXoXX",
"X X.XXXoXXX.XoX@@@@@@++++++@@@@@X.@@@@+++++++++++O@@ XX XXXXo. X",
"X .XXXXXXXXX.XX@@@+++++++++++@@@@@@@++++++++++++OO+@@@@ XoXXo. X",
"X .X.XX .X@@@@@@+++++++++++++++@@@+++++++++++++OO++++@@@oXXXX.XX",
"XXXXX. X.@@@@@@+++++++++++++++++++++++++++++OOOO+++++++@@@. XoXX",
"XXoXX. X@@@++++++++++++++++++++++++++++++OOOO+++++++++++@@@ XXoX",
"XoXX XXX@@+++++++++++++++++++++++++++++++++++++++++++++++@@ XXoX",
"XoX XXXX@+++++++OO++++++++++++++++++++++++++++++++++++++++@@XXXX",
"XXX XXXXO++++++++O+++++++++++OOOO+++++++++++++++++++++++++@@XXXX",
"XXoX @@@OO+++++++O++++++++++++++OO+++++++OOOOOO+++++++++++@@XXoX",
"XXoO@@@@@OO+++++OO+++++++++++++++O++++++OOO++++++++++++++@@.XoXX",
"XXXO@@++++O++++OO++++++++++++++++O++++++O+++++++++++++++@@@.XoX ",
" X.OO++++++OOOO++++++++++++++++++O+++++OO++++++++++++++@@o XXXX ",
"X XOOOOO++++++++++++++++++++++++OO+++++O++++++++++++OOO XXXX. X ",
"X X.OOOOOOOO++++++++++++OOOOOOOOO++++++O+++++++OOOOOOX. .XX.X XX",
"XXoX XOOOOOOOOOOOOOOOOOOOOOOOOOO+++++OOOOOOOOOOOOOOOXX.X. X.XXXX",
"XoXX .X XX OOOOOOOOOOOOOOo .OOOOOOOOOOOOX XoXoX oXXX.XXX XXXXo X",
"XoXXX.X oX XX XXXX.XoX.XXoX.XOOOOOOOOOOX. oXXoX XXXX.XXX .XX oX ",
"XXX.X.XXoX.XX XXXX XoXX XoXXXXoXXXXX XXX.XoX.XXXXXoXX Xo.XX XXX ",
"XX.XXXXX.XX.XoXXX X.XXX XXX XXoXXX X X.XXXX.XXXXXXoX XoX.XX XXXX",
"XX.XXo X.XX.XXoXX .XXX. XX X.XXXX .XXo.XXoX.X X.XXoX XoXXX.oXX.X",
"X XXoXX XXXX XoXXX.XoX.XoX X. XXX .XoX.X oXX X.XX XX.XX X .XoX. ",
"X XXoXX XXoXX XXXXXXoXXXoXXXXo XXXXXoXXX XXX X.XX XX.X XXX XoX X",
"X XXXXXXXXoXX XXXXXX@@@@@@@@@o XXXXXXXXXXXXXXXXXXXXXXX XXX XXX X",
"XXXXXX XoXXXXXXXXX@@@@@@@@@@@@@XXXXXX XXoXXXXXXXX XXXXXXXXoXX XX",
"XoX.X XXoXXXo XXXX@@+++++++++@@@@XXX XXoXXX oXXX XXXoX XXoX X XX",
"Xo.XX XXXX.Xo .XX@@++++++++++++@@@.X .XoX.X XoX. XXXXo XXo X. XX",
"XX.XXX.XX.XXX. XXO+++++++++++++++@@XX.XXXX.XXoX.XXX.XoXXXX X.XoX",
"XXXXoXX.X.X X.X @O++++++++++++++++@@@XX@@@@@@@ XX .XXXX .XXoXXoX",
"oX.XXoX.XXo XXX@@OO++++++++++++++++@@O@@@+++@@@XX .XXX X.XoXX oX",
"XoX.XoXXXoXX@@@@++O++++++++++++++++++O++++++++@@XXXXXX XXXoXX XX",
"XoX. XXXXo@@@@++++OO+++++++++++++++++O++++++++@@@XXX.XoXXXXXXXXX",
"XXXXX X.X@@@@++++++OOO+++++++++++++++OO++++++++@@o XX.XoX. XX.X ",
"XoXXX .X@@+++++++++++OOO++++OOO+++++++OO++++++++@@X X.XoX.X X. X",
"X oX.X.@@+++++O++++++++OOOOOO++++++++++OO++++++++@@ X.XXXXX X. X",
" XoX.X@@++++++OO++++++++++++++++++++++++OOO++++++@@XXXXX X.XXXXX",
" XXXX@@++++++++O++++++++++++++++++++++++++OOOOOO++@@@ oX .XXXXoX",
"X.XX @+++++++++O+++++++++++++++++++++++++++++++++++@@@XX .X .XoX",
"X.XX@@+++++++++OO+++++++++++++++++++++++++++++++++++@@@@XXX .XXX",
"XXXX++++++++++++O++++++++++++++++++++++++++++++++++++@@@XXXXXXXX",
"XXXO++++++++++++O++++++++++++++++++++++++OOOOOO+++++++@@@XX XXXX",
"XXXOO+++++++++++O++++++++++++++++++++OOOOO++++OO+++++++++oXX XXX",
"X .XO+++++++++++O+++++++++++++++++OOOO+++++++++++++++++++oXX oX ",
" X.XOO++++++++++O++++++++++++++++OO++++++++++++++++++++++oX.XoX ",
" XXX O+++++++++OO++++++++++++++++O+++++++++++++++++++++++XX.XXX ",
"XXXX OO++++++++O+++++++++++++++OOO++++++++++++++++++++OOOXX.XXXX",
"XXoXX.OO++++++OO++++++++++++++OOOOOOO+++++++++OOOO++OOOOOoXX .XX",
"XXXoXXXOO++++OO++++++++++++++OOOOOOOOO+++++++OOOOOOOOOOOXoXX X.X",
"XXXoXXoXOOOOO+++++++++++++++OOOX.XXOOOOOOOOOOOOXXOOOOXX.XXX.XX.X",
"XX.XXXoXOOOOO++++++++++++++OOO X.XXX OOOOOOOOOX.XXXXXXX.XX.XXXXX",
"XXX.XXX.XOOOOO++++++++++OOOOO. X.XXXXX XXXXX X.XXXXXXXXXXX.XX XX",
"XXX.X X.X XXOOOOOOOOOOOOOOOOX.XXXXoXX.X X.XXXX.XXX.XXX.XXoXXXX X",
"X XXX XXX X.XOOOOOOOOOOOOX. X.Xo Xo.X.X .oX.XoXXXX.XoX.X XoX.X X",
"X XXX.XXoX.XXXXXX X.XXXoXX.X XoXX o.XXoX.XoX.XoXX XXoX. XXoX.XXX",
"X XXX.XXoX.XX XXX X.XXXoXXXX XoXX X.XXoXXXoX.XoXXX XXXX XXXXXXXX",
"XXXXXXXXXXXXX XXXXXXXXXXXXXXXXXXXXXXXXXXXXXXXXXXXX XXXXXXXXXXXXX"
};
