/* XPM */
static char *_ae8ef5e3d644fa6b4341ee900f49dc746saLgcIcQbRfZTo[] = {
/* columns rows colors chars-per-pixel */
"64 64 4 1 ",
"  c #3D7913",
". c #469C0B",
"X c #4EAD0C",
"o c #92E558",
/* pixels */
"XXXXXXX XXXXXXXXXX XXXXXXXXXXXXXXXXXXXXXXXXXXXXXXXXXXXoXXXXXXXXX",
"XX.XX XX XXXX.X XX XXXX XXXoXXXoXX. X.X XXX.XoXXXoXX.XoXX X.Xo X",
"XXX.X XX XXoX.X X.XoXX X.XoX.XoXXo.X .XX oXX.XoXXoX. XXX.X X.o X",
"XXX.XoXX.XoXXXoXXX.XoX .X oX.XoXXoXo XX. oXX.XoXXoX.X XX.X X.XXX",
"XXXXXoX.XXoX.XoXXX.XoXX. XXXXXXXXXXXoX.XXX XX XXX XXX .XXXoXXXoX",
"XoXXXXX.XXXX.XoXXXXXXXXX . XXXX  X.XoX.XX. XX .XX XXX.XXXXoXX oX",
"XoX X.XXX XXXXXXXo XX.XXX.X .oX X .X.XXX .Xo.X.XoX.XX.XX.XX. XoX",
"XoX X.XXo XXoXXXXoX X.XoX.X .XoXX .X.XX XXoX.X.XXoX.XXoX.X.X XXX",
"XXXXXXXoX XXXoX X.X XXXoXXXXXXoXXXXXXoX XXoXX XXXoX. XoX X.XXoXX",
"X X.XXXoXXX.XoX XX.XXXXoXXXX.XXXX.XXoX.oXX.XX XoXXXX XX XXXXo. X",
"X .XXXXXXXXX.XX XX.XoX.X X. X.XXXX.XoX.XoX.XX XoXXoXXX. XoXXo. X",
"X .X.XX .XXX.XXXXXXoX.XX .X X.XXXX.XXXXXoX.Xo.XXXo.XX.XXoXXXX.XX",
"XXXXX. X. XXoXX X XoX. X .XXoXXXXoX . XXXX oX.XXXo.X .XXoX. XoXX",
"XXoXX. X.X oXX XX .XX XoXXXoXX XXo X.X .X XoXXXoXX.X XoXXX. XXoX",
"XoXX XXXXX oXX XXX.XX XoXXXoXX XXo XXX .X XXXXoXXXXX XXoXXX XXoX",
"XoX XXXXXXXXXXXXXXXXXXXXXXXXXX XXXXXXXXXXXXXXXoXXXXXXXXoXXXXXXXX",
"XXX XXXXXXXXXXX XXXXX XXXXXX XXXXXXXXXXXXXXoXXXXXXXXXXXXXXXXXXXX",
"XXoX X.XXoXX.X XX XX XXX XoX XXX XX.XX XX.XXoXXXoXXXX X.XX.XXXoX",
"XXo XX. XXoX.X oX .X X.XX XoX. XX .XXo X.XX oX.XXoX.X X.X X.XoXX",
"XXX XXX XXoXXXoXX .XXo.XX XoX. XX .XXo X.X XX.X Xo.XoXXXXo .XoX ",
" X.XX o XXXX XoXXXX oXX X.XXXX XXXoXXXXXXX XX.X XX.XXoX Xo XXXX ",
"X X.X oXX.XX .XX XX oXX .XXXoXXXXoX X.XXoX.XX XXXX XXoX XXXX. X ",
"X X.XXoX.XXX X.XX XXXXX . XXoX.XXoXX .X oXX. XXXXX XXX. .XX.X XX",
"XXoX XXX. X.XX.XX .XX.XXXX XX .X X.X oX oX . XoXoX .XX.X. X.XXXX",
"XoXX .X XX .XXXXXX.XXo.XXo .X XXX X.XXoXX XoXoX oXXX.XXX XXXXo X",
"XoXXX.X oX XX XXXX.XoX.XXoX.XoXXX X.XXoX. oXXoX XXXX.XXX .XX oX ",
"XXX.X.XXoX.XX XXXX XoXX XoXXXXoXXXXX XXX.XoX.XXXXXoXX Xo.XX XXX ",
"XX.XXXXX.XX.XoXXX X.XXX XXX XXoXXX X X.XXXX.XXXXXXoX XoX.XX XXXX",
"XX.XXo X.XX.XXoXX .XXX. XX X.XXXX .XXo.XXoX.X X.XXoX XoXXX.oXX.X",
"X XXoXX XXXX XoXXX.XoX.XoX X. XXX .XoX.X oXX X.XX XX.XX X .XoX. ",
"X XXoXX XXoXX XXXXXXoXXXoXXXXo XXXXXoXXX XXX X.XX XX.X XXX XoX X",
"X XXXXXXXXoXX XXXXXXXXXXXXXXXo XXXXXXXXXXXXXXXXXXXXXXX XXX XXX X",
"XXXXXX XoXXXXXXXXXXXXXXXXXXXXXXXXXXXX XXoXXXXXXXX XXXXXXXXoXX XX",
"XoX.X XXoXXXo XXXXXoXXXXoX .XoXXXXXX XXoXXX oXXX XXXoX XXoX X XX",
"Xo.XX XXXX.Xo .XX.XXo.XoX .X XoXXo.X .XoX.X XoX. XXXXo XXo X. XX",
"XX.XXX.XX.XXX. XXX.Xo.XoX .X XoXXo.XX.XXXX.XXoX.XXX.XoXXXX X.XoX",
"XXXXoXX.X.X X.X X .X XXXXXXX XXXX XXoXX.XX.XXX XX .XXXX .XXoXXoX",
"oX.XXoX.XXo XXX X . XX X.XXX.XXXXX oXX.X XX X XXX .XXX X.XoXX oX",
"XoX.XoXXXoXXXXoXXXX XX .XXoX.XoXXX oX . X.X X .XXXXXXX XXXoXX XX",
"XoX. XXXXoX.XXoXXXXX.X . XoXXXoXX.XXX X X.X X.XXXXXX.XoXXXXXXXXX",
"XXXXX X.X XX.XXXX.X .XXoX XXX.XXXX.XXX.XXXXoX.XXXo XX.XoX. XX.X ",
"XoXXX .XXX X.XXXX. XXXoXX X .XX XX.X .XXoX oXXoXXoX X.XoX.X X. X",
"X oX.X.XX. XXXXXXX X.XoXX.X .XX oXX X.XoX. XXXoXXXX X.XXXXX X. X",
" XoX.XXXX.XXXX XXXX.XX.XX.XXXXoXXoX XXXoX.XX.XX XXXXXXXX X.XXXXX",
" XXXXXXoX.XX.X XXoX.XXX.X.XXXXoXXoX.X XXXoXXX.X XXX.X oX .XXXXoX",
"X.XX XoXXXX X.XXXo XXoX. XX.XX XXXX. XX.XXoX .X X .X oXX .X .XoX",
"X.XX XoXX X X.XXXXX XoXXX X.X XXX X. XX.XXoX XXXX .X oXXXXX .XXX",
"XXXX XXXX XXXXXXXXX XXXXX XXX XXX XXXXXXXXXXXXXXXXXXXXXXXXXXXXXX",
"XXXXXXXXXXXXXXXXXXXXXXXXXXXXXXXXXXXXXXXXXXXXXXXXXXXXXXXXXXX XXXX",
"XXXXoXXX.XXXXXX XoXXXXXXXXXoXXXXXXXoXXXXX XXoXX XXX.XXX XoXX XXX",
"X .XoXoX.XoX.X XXoX.XX.XXX.XoXX.XXoX.XoXXX oX.X XX.XXo XXoXX oX ",
" X.XXXoX.XXoX. XXo.XoX.X .XXoXXX.XoX.XoX.X oX.XXXX.XoX .XoX.XoX ",
" XXX X.XXXXoX.XXXX.XoXX X.XXXX X.XXX XXXX.XXXX XXXXXoXX.XXX.XXX ",
"XXXX .X X.XXXXXXXXXXXXX XXoXX .XXXXX XXXX.XX.X XXXXXXXX.XXX.XXXX",
"XXoXX.XX .X XX.XXXoX.X.XXoX.X .XXX.XXX.XXXoXX.XXXX .XX XXoXX .XX",
"XXXoXXXo X XXX.XXoXX.XX.XoXX.XXXXX.X .XXXo.XX.XXX XX.X XXoXX X.X",
"XXXoXXoXXX o.X XXo.oXX .XX X.XXX.XXX .XoXo.XX XXX XX.XX.XXX.XX.X",
"XX.XXXoX.XXo. XXXX.XoX XXo XXX X.XXX XXoXX.X XX.XXXXXXX.XX.XXXXX",
"XXX.XXX.XXXXX XXXX.XoXXXXo XX. X.XXXXX XXXXX X.XXXXXXXXXXX.XX XX",
"XXX.X X.X XXXX.XXXXXXX.XXXXXX.XXXXoXX.X X.XXXX.XXX.XXX.XXoXXXX X",
"X XXX XXX X.XX.XXX X.X.XoX. X.Xo Xo.X.X .oX.XoXXXX.XoX.X XoX.X X",
"X XXX.XXoX.XXXXXX X.XXXoXX.X XoXX o.XXoX.XoX.XoXX XXoX. XXoX.XXX",
"X XXX.XXoX.XX XXX X.XXXoXXXX XoXX X.XXoXXXoX.XoXXX XXXX XXXXXXXX",
"XXXXXXXXXXXXX XXXXXXXXXXXXXXXXXXXXXXXXXXXXXXXXXXXX XXXXXXXXXXXXX"
};
