/* XPM */
static char *_0c0c9b172574b9fc5635f5178a770371WxxvU3FQGJQX9nz[] = {
/* columns rows colors chars-per-pixel */
"64 64 14 1 ",
"  c None",
". c black",
"X c #291379",
"o c gray39",
"O c #D80B0B",
"+ c #847E87",
"@ c #8B9093",
"# c #94A1A9",
"$ c #9BADB7",
"% c #A6AFB6",
"& c #B0B6BA",
"* c gainsboro",
"= c #EEE1E1",
"- c white",
/* pixels */
"                                                                ",
"                               oo                               ",
"                               oo                               ",
"                  @@@@@@@@@@@@o@@o@@@@@@@@@@@@                  ",
"              @@@@@###########o##oo##########@@@@               ",
"             #######$$$$$$$$$o#$$#o$$$$$$$$$#######             ",
"             %%%$$$$$$$$$$$$$o$$$$o$$$$$$$$$$$$$%%%             ",
"             &&%%%%%%%$$$$$$$o$$$$o$$$$$$$%%%%%%%&&             ",
"              &&&&&&&%%%%$$$$o$$$$o$$$$%%%%&&&&&&&              ",
"                    &&&&%%%%$o#$$#o$%%%%&&&&                    ",
"                       &&&&%%%o##o%%%&&&&                       ",
"                          &&&&o&&o&&&&                          ",
"                             @@oo@@                             ",
"                             @@oo@@                             ",
"                             @@oo@@                             ",
"                             @#@@#@                             ",
"                             @####@                             ",
"                             @#$$#@                             ",
"                             @#$$#@                             ",
"                            @@#$$#@@                            ",
"                            @##$$#@@                            ",
"                            @#$$$$#@                            ",
"                            @#$$$$#@                            ",
" -                          @#$$$$#@                        --  ",
"   -                        @#$$$$#@                         -  ",
"   -                        @#$$$$#@                            ",
"   -                       @@#$$$$#@@                         - ",
" - -                       @##$$$$##@                           ",
" -                         @#$$$$$$#@                           ",
"                           @#$$$$$$#@                        -- ",
"                           @#$$$$$$#@                           ",
"  -                        @#$$$$$$#@                       -   ",
"                           @#$$$$$$#@                       -   ",
"  -                       @@#$$$$$$#@@                          ",
"  --                      @##$$$$$$##@                          ",
"                          @#$$$++$$$#@                        - ",
"                          @#$$++++$$#@                        - ",
"  -                    @@@@#$++++++$#@@@@                       ",
" --              @@@@@@@####$+*++*++####@@@@@@@              -- ",
"          @@@@@@@@#######$$$++*++*++$$$#######@@@@@@@@          ",
"      @@@@@########$$$$$$$$$+**++**+$$$$$$$$$########@@@@@      ",
"   @@@@#####$$$$$$$$$$$$$$$$+**++**+$$$$$$$$$$$$$$$$#####@@@@   ",
"  @@####XXX$$$$$$$$$$$$$$$$$+**++**+$$$$$$$$$$$$$$$$$XXX####@@  ",
" @@##$$XXXXX$$$$$$$$$$$$$$$$+**++**+$$$$$$$$$$$$$$$$XXXXX$$##@@ ",
" ###$$XXOOOXX$$$$$$$$$$$$$$$+**++**+$$$$$$$$$$$$$$$XXOOOXX$$### ",
" $$$$$XXOOOXX$$$$$$$$$$$$$$$+**++**+$$$$$$$$$$$$$$$XXOOOXX$$$$$ ",
" %%%$$XXOOOXX$$$$$$$$$$$$$$$+**++**+$$$$$$$$$$$$$$$XXOOOXX$$%%% ",
" &&%%$$XXXXX$$$$$$$$$$$$$$$$++++++++$$$$$$$$$$$$$$$$XXXXX$$%%&& ",
"  &&%%%%XXX%%%%%%%%%%%%%%%%$+======+$%%%%%%%%%%%%%%%%XXX%%%%&&  ",
"   &&&&&&&&&&&&&&&&&&&&&&&%$++====++$%&&&&&&&&&&&&&&&&&&&&&&&   ",
"                         &%$$+====+$$%&                         ",
"                        +&%%$++==++$%%&+                        ",
"                        +&&%$$+==+$$%&&+                        ",
"                        ++&%$$++++$$%&++                        ",
"                         +&%%$$++$$%%&+                         ",
"                          &&%%$$$$%%&&                          ",
"                           &&%%%%%%&&                           ",
"                            &&&&&&&&                            ",
"                              ....                              ",
"                       ................                         ",
"                          ...........                           ",
"                              ....                              ",
"                               ..                               ",
"                                                                "
};
