/* XPM */
static char *_3a43f7bae074c49c35f19e3fc782e3eqt7NLqKm27wRFbq5[] = {
/* columns rows colors chars-per-pixel */
"64 64 17 1 ",
"  c black",
". c #3A7A0B",
"X c #240B7A",
"o c gray39",
"O c #D90303",
"+ c #449D03",
"@ c #4DAF04",
"# c #93E657",
"$ c #857F88",
"% c #8C9194",
"& c #95A3AB",
"* c #9CAFB8",
"= c #A8B1B7",
"- c #B2B7BB",
"; c #DDDDDD",
": c #EFE2E2",
"> c white",
/* pixels */
"@@@@@@@.@@@@@@@@@@.@@@@@@@@@@@@@@@@@@@@@@@@@@@@@@@@@@@#@@@@@@@@@",
"@@+@@.@@.@@@@+@.@@.@@@@.@@@#@@@  @+.@+@.@@@+@#@@@#@@+@#@@.@+@#.@",
"@@@+@.@@.@@#@+@.@+@#@@.@+@#@+@    +@.+@@.#@@+@#@@#@+.@@@+@.@+#.@",
"@@@+@#@@+@#@@@#@@@+@#@.+@.           @@+.#@@+@#@@#@+@.@@+@.@+@@@",
"@@@@@#@+@@#@+@#@@@+@#@@                 @@.@@.@@@.@@@.+@@@#@@@#@",
"@#@@@@@+@@@@+@#@@@@@@@@@.+.@@@    +@#@+@@+.@@.+@@.@@@+@@@@#@@.#@",
"@#@.@+@@@.@@@@@@@#.@@+@@@+@.--------+@@@.+@#+@+@#@+@@+@@+@@+.@#@",
"@#@.@+@@#.@@#@@@@#@.@+@#@+@--======--@@.@@#@+@+@@#@+@@#@+@+@.@@@",
"@@@@@@@#@.@@@#@.@+@.@@@#@@--==****==--@.@@#@@.@@@#@+.@#@.@+@@#@@",
"@.@+@@@#@@@+@#@.@@+@@@@#@$-==**$$**==-$#@@+@@.@#@@@@.@@.@@@@#+.@",
"@.+@@@@@@@@@+@@.@@+@#@+@$$-=**$$$$**=-$$#@+@@.@#@@#@@@+.@#@@#+.@",
"@.+@+@@.+@@@+@@@@@@#@+@@$--=**$::$**=--$#@+@#+@@@#+@@+@@#@@@@+@@",
"@@@@@+.@+.@@#@@.@.@#@+.@$-==*$$::$$*==-$@@.#@+@@@#+@.+@@#@+.@#@@",
"@@#@@+.@+@.#@@.@@.+@@.@#@-=**$::::$**=-+@.@#@@@#@@+@.@#@@@+.@@#@",
"@#@-----------------------=*$$::::$$*=-----------------------@#@",
"@#--====XXX================*$::::::$*================XXX====--@@",
"@--==**XXXXX****************$$$$$$$$****************XXXXX**==--@",
"@===**XXOOOXX***************$;;$$;;$***************XXOOOXX**===@",
"@*****XXOOOXX***************$;;$$;;$***************XXOOOXX*****@",
"@&&&**XXOOOXX***************$;;$$;;$***************XXOOOXX**&&&.",
".%%&&**XXXXX****************$;;$$;;$****************XXXXX**&&%%.",
"@.%%&&&&XXX*****************$;;$$;;$*****************XXX&&&&%%@.",
"@.@%%%%&&&&&****************$;;$$;;$****************&&&&&%%%%.@@",
"@@#@.@%%%%%&&&&&&&&*********$;;$$;;$*********&&&&&&&&%%%%%@+@@>@",
"@>>@.+@.@@%%%%%%%%&&&&&&&***$$;$$;$$***&&&&&&&%%%%%%%%@@.@@@@>>@",
"@#>@@+@.#@.@@.@@@%%%%%%%&&&&$$;$$;$*&&&&%%%%%%%.@@@@+@@@.+@@.>@.",
"@@>+@+@@#@+@@.@@@@.@#@@%%%%&*$$$$$$*&%%%%@#@+@@@@@#@@.@#+@@.@@@.",
"@@+@@@@@+@@+@#@@@.@+@@@.@@%&**$$$$**&%+@@@@+@@@@@@#@.@#@+@@.>@@@",
"@>+@@#.@+@@+@@#@@.+@@@+.@@%&***$$***&%+@@#@+@.@+@@#@.@#@@@+#>@+@",
"@>@@#@@.@@@@.@#@@@+@#@+@#@%&&******&&%+@.#@@.@+@@.@@+@@.@.+@#@+.",
"@>@@#@@.@@#@@.@@@@@@#@@@#@%%&******&%%@@.@@@.@+@@.@@+@.@@@.@#@.@",
"@.@@@@@@@@#@@.@@@@@@@@@@@@@%&******&%@@@@@@@@@@@@@@@@@.@@@.@@@>@",
"@@@@@@.@#@@@@@@@@@@@@@@@@@@%&******&%.@@#@@@@@@@@.@@@@@@@@#@@.>@",
"@#@>@.@@#@@@#.@@@@@#@@@@#@.%&******&%@@#@@@.#@@@.@@@#@.@@#@.@.@@",
"@#+>@.@@@@+@#.+@@+@@#+@#@.+%&******&%+@#@+@.@#@+.@@@@#.@@#.@>.@@",
"@@+>@@+@@+@@@+.@@@+@#+@#@.+%&******&%+@@@@+@@#@+@@@+@#@@@@.@>@#@",
"@@@@#@@+@+@.@+@.@.+@.@@@@@@%&&****&&%@@+@@+@@@.@@.+@@@@.+@@#>@#@",
"#@+@@#@+@@#.@@@.@.+.@@.@+@@%%&****&%%@+@.@@.@.@@@.+@@@.@+@#@>.#@",
"@>@+@#@@@#@@@@#@@@@.@@.+@@#@%&****&%@.+.@+@.@.+@@@@@@@.@@@#@@.>@",
"@>@+.@@@@#@+@@#@@@@@+@.+.@#@%&****&%@.@.@+@.@+@@@@@@+@#@@@@@@@>@",
"@>@@@.@+@.@@+@@@@+@.+@@#@.@@%&****&%@@+@@@@#@+@@@#.@@+@#@+.@@+@.",
"@#@@@.+@@@.@+@@@@+.@@@#@@.@.%&****&%.+@@#@.#@@#@@#@.@+@#@+@.>+.@",
"@.#>+@+@@+.@@@@@@@.@+@#@@+@.%&****&%@+@#@+.@@@#@@@@.@+@@@@@.@>.@",
".@#>+@@@@+@@@@.@@@@+@@+@@+@@%%&**&&%@@@#@+@@+@@.@@@@@@@@.@+@@@@@",
".@@@@@@#@+@@+@.@@#@+@@@+@+@@%%&**&%%@.@@@#@@@+@.@@@+@.#@.+@@@@#@",
"@+@@.@#@@@@.@+@@@#.@@#@+.@@+@%&**&%+.@@+@@#@.+@.@.+@.#@@.+@.+@#@",
"@+@@.@#@@.@.@+@@@@@.@#@@@.@+@%&**&%+.@@+@@#@.@@@@.+@.#@@@@@.+@@@",
"@@@@.@@@@.@@@@@@@@@.@@@@@.@@@%&&&&%@@@@@@@@@@@@@@@@@@@@@@@@@@@@@",
"@@@@@@@@@@@@@@@@@@@@@@@@@@@@@%&%%&%@@@@@@@@@@@@@@@@@@@@@@@@.@@@@",
"@@@@#@@@+@@@@@@.@#@@@@@@@@@#@%%oo%%#@@@@@.@@#@@.@@@+@@@.@#@@.@@@",
"@.+@#@#@+@#@+@.@@#@+@@+@@@+@#%%oo%%@+@#@@@.#@+@.@@+@@#.@@#@@.#@.",
".@+@@@#@+@@#@+.@@#+@#@+@.+@@#%%oo%%@+@#@+@.#@+@@@@+@#@.+@#@+@#@.",
".@@@.@+@@@@#@+@@@@+@#@@.@+----o--o----@@@+@@@@.@@@@@#@@+@@@+@@@.",
"@@@@.+@.@+@@@@@@@@@@@@@----===o&&o===----+@@+@.@@@@@@@@+@@@+@@@@",
"@@#@@+@@.+@.@@+@@@#@----====*o&**&o*====----@+@@@@.+@@.@@#@@.+@@",
"@@@#@@@#.@.@@@-------====****o****o****====-------@@+@.@@#@@.@+@",
"@@@#@@#@@@.#+--=======*******o****o*******=======--@+@@+@@@+@@+@",
"@@+@@@#@+@@#+===*************o****o*************===@@@@+@@+@@@@@",
"@@@+@@@+@@@@@&&&&&&&*********o&**&o*********&&&&&&&@@@@@@@+@@.@@",
"@@@+@.@+@.@@@@+%%%%&&&&&&&&&&oo&&o&&&&&&&&&&&%%%%%+@@@+@@#@@@@.@",
"@.@@@.@@@.@+@@+@@@%%%%%%%%%%%%o%%o%%%%%%%%%%%%@@@@+@#@+@.@#@+@.@",
"@.@@@+@@#@+@@@@@@.@+@@@#@@+@.@#oo.#+@@#@+@#@+@#@@.@@#@+.@@#@+@@@",
"@.@@@+@@#@+@@.@@@.@+@@@#@@@@.@#oo.@+@@#@@@#@+@#@@@.@@@@.@@@@@@@@",
"@@@@@@@@@@@@@.@@@@@@@@@@@@@@@@@@@@@@@@@@@@@@@@@@@@.@@@@@@@@@@@@@"
};
