/* XPM */
static char *result[] = {
/* columns rows colors chars-per-pixel */
"64 64 17 1 ",
"  c black",
". c #3D7913",
"X c #291379",
"o c gray39",
"O c #D80B0B",
"+ c #469C0B",
"@ c #4EAD0C",
"# c #92E558",
"$ c #847E87",
"% c #8B9093",
"& c #94A1A9",
"* c #9BADB7",
"= c #A6AFB6",
"- c #B0B6BA",
"; c gainsboro",
": c #EEE1E1",
"> c white",
/* pixels */
"@@@@@@@.@@@@@@@@@@.@@@@@@@@@@@@@@@@@@@@@@@@@@@@@@@@@@@#@@@@@@@@@",
"@@+@@.@@.@@@@+@.-=*&%@@.>>@#@>@#@@+>>+@.>@@+@#@@@#@@+@#@@.@+@#.@",
"@@@+@.@@.@@#@+@--=*&%%.@>@#@+>>@@#+@.+>>.#@@+@#@@#@+.@@@+@.@+#.@",
"@@@+@#@@+@#@@@--==*&&%%+@.#@+@#>>>@#.@@+.#@@+@#@@#@+@.@@+@.@+@@@",
"@@@@@#@+@@#@+@-==***&&%+.@@@@@@@@@@@#@+@@@.@@.@@@.@@@.+@@@#@@@#@",
"@#@@@@@+@@@@+@-=*****&%@.+.@@@@..@+@#@+@@+.@@.+@@.@@@+@@@@#@@.#@",
"@#@.@+@@@.@@@@-=*XXX*&%%@+@.+#@.@.+@+@@@.+@#+@+@#@+@@+@@+@@+.@#@",
"@#@.@+@@#.@@#@-=XXXXX&&%@+@.+@#@@.+@+@@.@@#@+@+@@#@+@@#@+@+@.@@@",
"@@@@@@@#@.@@@#-XXOOOXX&%@@@@@@#@@@@@@#@.@@#@@.@@@#@+.@#@.@+@@#@@",
"@.@+@@@#@@@+@#-XXOOOXX&%@@@@+@@@@+@@#@+#@@+@@.@#@@@@.@@.@@@@#+.@",
"@.+@@@@@@@@@+@-XXOOOXX&%%@+.@+@@@@+@#@+@#@+@@.@#@@#@@@+.@#@@#+.@",
"@.+@+@@.+@@@+@-=XXXXX*&&%+@.@+@@@@+@@@@@#@+@#+@@@#+@@+@@#@@@@+@@",
"@@@@@+.@+.@@#@-=*XXX***&%+@@#@@@@#@.+.@@@@.#@+@@@#+@.+@@#@+.@#@@",
"@@#@@+.@+@.#@@-=*******&%@@#@@.@@#.@+@.+@.@#@@@#@@+@.@#@-=&.@@#@",
"@#@@.@@@@@.#@@-=*******&%@@#@@.@@#.@@@.+@.@@@@#@@@@@.@@--=&%@@#@",
"@#@.@@@@@@@@@@-=*******&%@@@@@.@@@@@@@@@@@@@@@#@@@@@@@@-==&%@@@@",
"@@@.@@@@@@@@@@-=*******&%@@@.@@@@@@@@@@@@@@#@@@@@@@@@@@-=*&%@@@@",
"@@#@.@+@@#@@+@-=*******&%%#@.@@@.@@+@@.@@+@@#@@@#@@@@.@-=*&%@@#@",
"@@#.@@+.@@#@+@-=*******&&%@#@+.@@.+@@#.@+@@.#@+@@#@+@.@-=*&%%#@@",
"@@@.@@@.@@#@@@-=********&%@#@+.@@.+@@#.@+@.@@+@.@#+@#@@-=*&&%#@.",
".@+@@.#.@@@@.@-=********&%@@@@.@@@#@@@@@@@.@@+@.@@+@@#--=**&%@@.",
"@.@+@.#@@+@@.+-=********&%@@#@@@@#@.@+@@#@+@@.@@@@.@@#-==**&%.@.",
"@.@+ @#@+@@@.@-=********&%@@#@+@@#@@.+@.#@@+.@@@@@.@@@-=***&%.@@",
"@@#@ @@@+.@+@@-=********&%%@@.+@.@+@.#@.#@.+.@#@#@.+@--=***&%@@@",
"@#@  +@.@@$$$@-=********&&%+@.@@@.@+@@#@@.@#@#@.#@@@+-==***&%#.@",
"@#@  +@.#$$----=*********&%+@#@@@.@+@@#@+.#@@#@.@@@@+-=****&%#@.",
"@@@  +@@----====*********&%%%%%@@@@@.@@@+@#@+@@@@@#@--=****&%@@.",
"@@+  @@--====************&&&&&%%%%%%%%+@@@@+@@@@@@#@-==****&%@@@",
"@@+  #--==****$$$$$$$$$$$****&&&&&&&&%%%%%%%%.@+@@#@-=*****&%@+@",
"@.@  @-==***$$$:$;;;;;;;$$$*********&&&&&&&&%%%%%%%%-=ooooo&%@+.",
"@.    -=**$$$:::$;;;;;;;;;$$***************&&&&&&%%%oo&***&oo@.@",
"@     -=*$$:::::$$$$$$$$$$$$$******************&%ooo-&*****&%oo@",
"@     -=*$$:::::$$$$$$$$$$$$$******************&%ooo-&*****&%oo@",
"@#    -=**$$$:::$;;;;;;;;;$$***************&&&&&&%%%oo&***&oo.@@",
"@#+  .-==***$$$:$;;;;;;;$$$*********&&&&&&&%%%%%%%%%-=oooooo%.@@",
"@@+  @--==****$$$$$$$$$$$$***&&&&&&&&%%%%%%%%#@+@@@+-=*****&%@#@",
"@@@  @@--====************&&&&&%%%%%%%%@+@@+@@@.@@.+@-==****&%@#@",
"#@+  #@+----====*********&%%%%%@@@.#@@+@.@@.@.@@@.+@--=****&%.#@",
"@#@  #@@@$$----=*********&%@+@#@@@.#@.+.@+@.@.+@@@@@@-=****&%.@@",
"@#@  @@@@#$$$@-=********&&%@@@#@@+@@@.@.@+@.@+@@@@@@+-==***&%@@@",
"@@@@ .@+@.@@+@-=********&%%@@+@@@@+@@@+@@@@#@+@@@#.@@--=***&%+@.",
"@#@@ .+@@@.@+@-=********&%@.+@@.@@+@.+@@#@.#@@#@@#@.@+-=***&%+.@",
"@.#@+@+@@+.@@@-=********&%@.+@@.#@@.@+@#@+.@@@#@@@@.@+-==**&%+.@",
".@#@+@@@@+@@@@-=********&%@@@@#@@#@.@@@#@+@@+@@.@@@@@@--=**&%@@@",
".@@@@@@#@+@@+@-=********&%@@@@#@@#@+@.@@@#@@@+@.@@@+@.#-=*&&%@#@",
"@+@@.@#@@@@.@+-=*******&&%@+@@.@@@@+.@@+@@#@.+@.@.+@.#@-=*&%%@#@",
"@+@@.@#@@.@.@+-=*******&%%@+@.@@@.@+.@@+@@#@.@@@@.+@.#@-=*&%+@@@",
"@@@@.@@@@.@@@@-=*******&%.@@@.@@@.@@@@@@@@@@@@@@@@@@@@@-=*&%@@@@",
"@@@@@@@@@@@@@@-=*******&%@@@@@@@@@@@@@@@@@@@@@@@@@@@@@@-==&%@@@@",
"@@@@#@@@+@@@@@-=*******&%@@#@@@@@@@#@@@@@.@@#@@.@@@+@@@--=&@.@@@",
"@.+@#@#@+@#@+@-=*******&%@+@#@@+@@#@+@#@@@.#@+@.@@+@@#.@-=&@.#@.",
".@+@@@#@+@@#@+-=*XXX***&%+@@#@@@+@#@+@#@+@.#@+@@@@+@#@.+@#@+@#@.",
".@@@.@+@@@@#@+-=XXXXX*&&%+@@@@.@+@@@.@@@@+@@@@.@@@@@#@@+@@@+@@@.",
"@@@@.+@.@+@@@@-XXOOOXX&%%@#@@.+@@@@@.@@@@+@@+@.@@@@@@@@+@@@+@@@@",
"@@#@@+@@.+@.@@-XXOOOXX&%@#@+@.+@@@+@@@+@@@#@@+@@@@.+@@.@@#@@.+@@",
"@@@#@@@#.@.@@@-XXOOOXX&%@#@@+@@@@@+@.+@@@#+@@+@@@.@@+@.@@#@@.@+@",
"@@@#@@#@@@.#+@-=XXXXX&&%@@.@+@@@+@@@.+@#@#+@@.@@@.@@+@@+@@@+@@+@",
"@@+@@@#@+@@#+.-=*XXX*&%%@#.@@@.@+@@@.@@#@@+@.@@+@@@@@@@+@@+@@@@@",
"@@@+@@@+@@@@@.-=*****&%@@#.@@+.@+@@@@@.@@@@@.@+@@@@@@@@@@@+@@.@@",
"@@@+@.@+@.@@@@-==***&&%@@@@@@+@@@@#@@+@.@+@@@@+@@@+@@@+@@#@@@@.@",
"@.@@@.@@@.@+@@--==*&&%%@#@+>>>@#.@#+>>@.+#@+@#@@@@+@#@+@.@#@+@.@",
"@.@@@+@@#@+@@@@--=*&%%@#@@+@.>#>>>#+@@>>+@#@+@#@@.@@#@+.@@#@+@@@",
"@.@@@+@@#@+@@.@@-=*&%@@#>>>@.@#>@.@+@@#@@@#@+@#@@@.@@@@.@@@@@@@@",
"@@@@@@@@@@@@@.@@@@@@@@@@@@@@@@@@@@@@@@@@@@@@@@@@@@.@@@@@@@@@@@@@"
};
