/* XPM */
static char *result[] = {
/* columns rows colors chars-per-pixel */
"64 64 17 1 ",
"  c black",
". c #3A7A0B",
"X c #240B7A",
"o c gray39",
"O c #D90303",
"+ c #449D03",
"@ c #4DAF04",
"# c #93E657",
"$ c #857F88",
"% c #8C9194",
"& c #95A3AB",
"* c #9CAFB8",
"= c #A8B1B7",
"- c #B2B7BB",
"; c #DDDDDD",
": c #EFE2E2",
"> c white",
/* pixels */
"@@@@@@@@@@@@@@@@@@@...@@@..@@.@@@@@@@@@@.@@@@@@@@@...@@@@@@@@@@@",
"@..@###@@..@@##@@#@@@@@@.@@@++..>@@##>>>@..%&*=-@@@@@@@++@@..@@@",
"@##@@.@@#+++#@@@@@##@..@>>@@@@>>>.>@@..@++%%&*=--@##@@+@@@.@@@@@",
"@@++@@..@##@@@@@@@@@@+@@@.>>@##@@@>>>@@@@%%&&*==--.@@@..@@@@++@@",
"@+@@@@+@@@@@...@@@++@@++@@..#@@@@.@@#@@@@%&&***==-@+++@@+@@@@@@@",
"@@..##@++@@@++@@@+@..@@@@@@@++..#@..@##@.%&*****=-@@@@@@@++@##@@",
"@.@@@@@@@@#@@@@@@@.##@@.@+@@@.@@@##@@@@@%%&*XXX*=-##@@##@@@#@@@@",
"@@++@@++.@@##@@@@@@@@@++..++@@@@@@@@++@@%&&XXXXX=-@@@@@@@@@@.@@@",
"@@@@@@@@@..@@@##@++@...@@@#@@.@@@@@@.@@@%&XXOOOXX-@+++@@++@@@..@",
"##@@+@@##@+@@#@@@@@@@@++@@@##@..@..@@..#%&XXOOOXX-..@@..@@@+++@@",
"@@@..++@@@@++@@@@..@##@@@@.@@@@@@@##@@@%%&XXOOOXX-#@@@@@@@@@@@@@",
"@+.@@@@@..@@...@@@@#@@@@++@..++@@#@@@@@%&&*XXXXX=-@##@@++@@@##@@",
"@@++@@@++@@@@@@@@@+@@@@+@@@@@@@@@@@+@@@%&***XXX*=-@@@@+@@@@@@@@@",
"@@@@@&=-@@#+++@@@@@++...@@###@@@@@@@++@%&*******=-++@@.@@@@++@..",
"@###.&=--@@##@@@@@##@@@@@@@@@..@.@@@..@%&*******=-@@@@@..@@@@.@@",
"@@@@%&==-@@@@@@@@#@@@@@##@@@@@@@@..@@@@%&*******=-@@@@@@@@@@@@@@",
"@@@@%&*=-##@@#@@@@@..@@@..@@+@@@@@++@@@%&*******=-.@@@@@@+@@@@@@",
"@@##%&*=-@@@@@##@@+@@@@#@@@@@++@@@@@.@%%&*******=-@@..@@@@++@##@",
"@#@%%&*=-..++@@@@@@++.@@##@@.@@@@@##@.%&&*******=-++@@++.@@@#@@@",
"@@+%&&*=-@@#@@@@@##@@@..@@+@@..@@#@@@@%&********=-@@@+@@@..@@++@",
"@+@%&**=--@@##@@#@.@@@++#@@++@@@@..@@.%&********=-##@@@@@@@@+@@@",
"@@@%&**==-++.@@@@@@..+@.@##@@@@@@@@++@%&********=-..@@#+++@@@##@",
"@@#%&***=-@@@..@@+@@@@@@..@@##@@@@+@@@%&********=-@@++@##@@ #@@@",
"@@.%&***=--#@@@@@@++@###@++@@..@#@@@@%%&********=-@+@@@@@@@ ++@@",
"@.@%&***==-@@++@@@@@@@..@@@@@@@@@##@+%&&********=-@$$$@@##@  @@@",
"@@@%&****=-@@..@@...@@@@##@+++@@@@@@@%&*********=----$$@@@.  ##@",
"@++%&****=--.@@@@@##@++#@@@@#@@@.%%%%%&*********====----+@@  @@@",
"@@.%&****==-++@@@@@@@@..@@%%%%%%%%&&&&&************====--.@  @@@",
"@.@%&*****=-.@@@@+@%%%%%%%%&&&&&&&&***$$$$$$$$$$$$****==--@  ++@",
"@++%oooooo=-%%%%%%%%%&&&&&&&*********$$$;;;;;;;$:$$$***==-@  #@@",
"@@#oo&***&oo%%%&&&&&&***************$$;;;;;;;;;$:::$$$**=-    .@",
"@oo%&*****&-ooo%&******************$$$$$$$$$$$$$:::::$$*=-     @",
"@oo%&*****&-ooo%&******************$$$$$$$$$$$$$:::::$$*=-     @",
"@@#oo&***&oo%%%&&&&&&***************$$;;;;;;;;;$:::$$$**=-    #@",
"@@@%&ooooo=-%%%%%%%%&&&&&&&&*********$$$;;;;;;;$:$$$***==-+  @@@",
"@@+%&*****=-#@@@..@%%%%%%%%&&&&&&&&****$$$$$$$$$$$****==--@  ..@",
"@#@%&****==-@##@@@##@@@@++%%%%%%%%&&&&&************====--@@  @@@",
"@@#%&****=--@@@@@#@@@@@..@@@..@@@%%%%%&*********====----...  +@@",
"@@@%&****=-++@@@@@..+@.@###@@@@@@@..@%&*********=----$$#@##  @@@",
"@@+%&***==-..@@@@.@@@++@@@@@@##@@#@@@%&&********=-@$$$@@@@@  @@@",
"@.@%&***=--@@##@@@@@...@@@...@@@@@##@%%&********=-@@..@++@@ @##@",
"@@.%&***=-+@.@@@@@++@@@@++@@++@@@@@@@.%&********=-++@@+@..@ +@@@",
"@@@%&**==-@++..@.@@#@@@+#@@@@@@@@@++@@%&********=-@@@@@@@@@@@@@@",
"@@@%&**=--#@@@@@@..@##@@@##@@##@@@##.@%&********=-@##@++@##@+@@@",
"@@#%&&*=-@@##@@@@@@@..@@@@@+@@@@@#@@@.%&********=-+@@@@@#@@@@++@",
"..@%%&*=-++@@++@@@++@@@+++.@++@@@@@+++%&&*******=-@++@#@+++@.@@@",
"@@+@%&*=-@@@..@@@...@@..@@@..@@@@@+@..%%&*******=-##@@@##@@@@..@",
"@@@@%&*=-@@@@@@@@@@@@.@@@@@@@@@@@@@@@@@%&*******=-@@@@@@@@@@@@@@",
"@..@%&==-..@.@@@.@#@@@@@@@@@@@@@@@@@..@%&*******=-@@@@@@@@@@@@@@",
"@@@#%&=--@@@@..@@..##@++@@@@##@@@@+.@@#%&*******=-..@@++.@@++@@@",
"@++@@&=-##@@@@@@@@@@@+@@@..#@@..@..++@@%&*******=-@++@@@@..@@@..",
"@@@@++@#@@++#@@@@++@...@@@@@@.@@@##@@@@%&***XXX*=-+@@@@@++@@@@@@",
"@@#@@@@@@+@@@##@@@@@@@@++@@++@@@@@@@..@%&&*XXXXX=-@##@.@##@@+@@@",
"@@@##@@@@@@@@..@@@##@@@@..+@@@##@@+@@#@%%&XXOOOXX-#@@@@..@@@@++@",
"@@@@@@...@@@.@@@@#@@@+@.@@@@@@@@@@@++@##%&XXOOOXX-@@@++@@@@..@@@",
"@..+@@@#@@@+++@@@@@@@@++@##++@@@##@@@@@@%&XXOOOXX-++@@..@+@@@##@",
".@@@++@@##@.@@@@@@...@@@..@@@..@@@@@++@@%&&XXXXX=-@@@.@#@@++@@@@",
"@@@@@@@@@@@@..@@@++@###@@@@@.@@@.@@+@@@@%%&*XXX*=-##+@@@##@@@@@@",
"@..##@++@@@@++@@@@@@..@@+++@#@@@@..@@##@.%&*****=-@@@++@@@@..++@",
"@@@@@@@@@@@+@@.@@.@@@@@..@@@@##@@@@@#@@.@%&&***==-#@..@@@@@@@@@@",
"@@++@@..@+@@@@@..@..@++@@@+@@@>>>+@@@@++@%%&&*==--@@@@@##@++@@@@",
"@+@@@@@@@@++@#@@@##@+@@#>>@++@@@@>>+@+@>@@%%&*=--@++@@#@@+@@@@@@",
"@@@@@###@...@@##@@@@@..>##@>>...@#>@@@>>@#.%&*=-@@.@@@@@@@@@...@",
"@@@@@@@@@@@@@@@@@@@@.@@@@@@@@@@@@@@@@#@@@@@..@@@@@@..@@@@@@@@@@@"
};
