/* XPM */
static char *fd3f7bfe08ef439cb53daff121c17213xXfXCmVGCHn1WSfw[] = {
/* columns rows colors chars-per-pixel */
"64 64 14 1 ",
"  c black",
". c #272525",
"X c #3D7913",
"o c #C75100",
"O c #E95F00",
"+ c #FB6804",
"@ c #469C0B",
"# c #4EAD0C",
"$ c #92E558",
"% c #939393",
"& c #A9A9A9",
"* c #C7C0C0",
"= c #D8D1D1",
"- c white",
/* pixels */
"#######X##########X###################################$#########",
"##@##X##X####@#X##X####X###$###$##@X#@#X###@#$###$##@#$##X#@#$X#",
"###@#X##X##$#@#X#@#$##X#@#$#@#$##$@#X@##X$##@#$##$#@X###@#X#@$X#",
"###@#$##@#$###$###@#$#X@#X$#@#$##$#$X##@X$##@#$##$#@#X##@#X#@###",
"#####$#@##$#@#$###@#$##@X###########$#@###X##X###X###X@###$###$#",
"#$#####@####@#$#########X@X####XX#@#$#@##@X##X@##X###@####$##X$#",
"#$#X#@###X#######$X##@###@#X@$#X#X@#@###X@#$@#@#$#@##@##@##@X#$#",
"#$#X#@##$X##$####$#X#@#$#@#X@#$##X@#@##X##$#@#@##$#@##$#@#@#X###",
"#######$#X###$#X#@#X###$######$######$#X##$##X###$#@X#$#X#@##$##",
"#X#@###$###@#$#X##@####$####@####@##$#@$##@##X#$####X##X####$@X#",
"#X@#########@##X##@#$#@#X#@X#@####@#$#@#$#@##X#$##$###@X#$##$@X#",
"#X@#@##X@###@######$#@##X@#X#@####@#####$#@#$@###$@##@##$####@##",
"#####@X#@X##$##X#X#$#@X#X@##$####$#X@X####X$#@###$@#X@##$#@X#$##",
"##$##@X#@#X$##X##X@##X#$###$##X##$X#@#X@#X#$###$##@#X#$###@X##$#",
"#$##X#####X$##X###@##X#$###$##X##$X###X@#X####$#####X##$###X##$#",
"#$#X##########################X##...##########$########$########",
"###X###########X#####X######X###.....######$####################",
"##$#X#@##$##@#X##X##X###X#$#X###.&*=.#X##@##$###$####X#@##@###$#",
"##$X##@X##$#@#X$#X@#X#@##X#$#@X##%&*=-X#@##X$#@##$#@#X#@#X#@#$##",
"###X###X##$###$##X@##$@##X#$#@X##%&*=-X#@#X##@#X#$@#$####$X@#$#X",
"X#@##X$X####X#$####X$##X#@####X##%&*=-####X##@#X##@##$#X#$X####X",
"#X#@#X$##@##X@##X##X$##X@###$####%&*=-##$#@##X####X##$#X####@X#X",
"#X#@##$#@###X#@##X#####X@X##$#@##$%&*=-X$##@X#####X###@X@##@#X##",
"##$#X###@X#@##@##X@##@####X##X@#X#%&*=-X$#X@X#$#$#X@##@#@X#@####",
"#$##X@#X##X@######@##$@##$X@#X###X%&*=-##X#$#$#X$###@###X####$X#",
"#$###@#X$#X##X####@#$#@##$#@#$###X%&*=-#@X$##$#X####@###X@##X$#X",
"###@#@##$#@##X####X#$##X#$####$####%&*=-@#$#@#####$##X#$@##X###X",
"##@#####@##@#$###X#.###X###X##$###X%&*=-###@######$#X#$#@##X####",
"##@##$X#@##@##$##X...%@X##X%%%%%%%%&&*=-#$#@#X#@##$#X#$###@$##@#",
"#X##$##X####X#$###.&&%@#%%%%&&&&&&%&**=-X$##X#@##X##@##X#X@#$#@X",
"#X##$##X##$##X####%&&*%%&&&&&****&&&**=- --#X#@##X##@#X###X#$#X#",
"#X########$##X#####%&*****************====-oO+########X###X###X#",
"######X#$##########%&*****************====-oO+###X########$##X##",
"#$#@#X##$###$X####%&&*%%&&&&&****&&&**=- --X$###X###$#X##$#X#X##",
"#$@##X####@#$X@##@.&&%#$%%%%&&&&&&%&**=-#@#X#$#@X####$X##$X#@X##",
"##@###@##@###@X###...%#$#X@%%%%%%%%&&*=-##@##$#@###@#$####X#@#$#",
"####$##@#@#X#@#X#X@.X#######X####X#%&*=-##@###X##X@####X@##$##$#",
"$#@##$#@##$X###X#X@X##X#@###@#####X%&*=-X##X#X###X@###X#@#$##X$#",
"#$#@#$###$####$####X##X@##$#@#$###%&*=-X#@#X#X@#######X###$##X##",
"#$#@X####$#@##$#####@#X@X#$###$##@%&*=-X#@#X#@######@#$#########",
"#####X#@#X##@####@#X@##$#X###@####%&*=-####$#@###$X##@#$#@X##@#X",
"#$###X@###X#@####@X###$##X#X@##X##%&*=-#$#X$##$##$#X#@#$#@#X#@X#",
"#X$#@#@##@X#######X#@#$##@#X@##X$%&*=-#$#@X###$####X#@#####X#@X#",
"X#$#@####@####X####@##@##@####$##%&*=-#$#@##@##X########X#@#####",
"X######$#@##@#X##$#@###@#@####$##%&*=-###$###@#X###@#X$#X@####$#",
"#@##X#$####X#@###$X##$#@X##@##X##%&*=-#@##$#X@#X#X@#X$##X@#X@#$#",
"#@##X#$##X#X#@#####X#$###X#@#X##.&*=.##@##$#X####X@#X$#####X@###",
"####X####X#########X#####X###X##.....###########################",
"#################################...#######################X####",
"####$###@######X#$#########$#######$#####X##$##X###@###X#$##X###",
"#X@#$#$#@#$#@#X##$#@##@###@#$##@##$#@#$###X$#@#X##@##$X##$##X$#X",
"X#@###$#@##$#@X##$@#$#@#X@##$###@#$#@#$#@#X$#@####@#$#X@#$#@#$#X",
"X###X#@####$#@####@#$##X#@####X#@###X####@####X#####$##@###@###X",
"####X@#X#@#############X##$##X@#####X####@##@#X########@###@####",
"##$##@##X@#X##@###$#@#@##$#@#X@###@###@###$##@####X@##X##$##X@##",
"###$###$X#X###@##$##@##@#$##@#####@#X@###$@##@###X##@#X##$##X#@#",
"###$##$###X$@#X##$@$##X@##X#@###@###X@#$#$@##X###X##@##@###@##@#",
"##@###$#@##$@X####@#$#X##$X###X#@###X##$##@#X##@#######@##@#####",
"###@###@#####X####@#$####$X##@X#@#####X#####X#@###########@##X##",
"###@#X#@#X####@#######@######@####$##@#X#@####@###@###@##$####X#",
"#X###X###X#@##@###X#@#@#$#@X#@#$X#$@#@#X@$#@#$####@#$#@#X#$#@#X#",
"#X###@##$#@######X#@###$##@#X#$##X$@##$#@#$#@#$##X##$#@X##$#@###",
"#X###@##$#@##X###X#@###$####X#$##X#@##$###$#@#$###X####X########",
"#############X####################################X#############"
};
