/* XPM */
static char *_dc6d75e4ae149bb84ff7f33795594d69qzwnKtqhXdBwu9c[] = {
/* columns rows colors chars-per-pixel */
"64 64 9 1 ",
"  c #3D7913",
". c #469C0B",
"X c #4EAD0C",
"o c #92E558",
"O c #3848A9",
"+ c #847E87",
"@ c #858186",
"# c #918B93",
"$ c #9D95A0",
/* pixels */
"XXXXXXX XXXXXXXXXX XXXXXXXXXXXXXXXXXXXXXXXXXXXXXXXXXXXoXXXXXXXXX",
"XX.XX XX XXXX.X XX XXXX XXXoXXXoXX. X.X XXX.XoXXXoXX.XoXX X.Xo X",
"XXX.X XX XXoX.X X.XoXX X.XoX.XoXXo.X .XX oXX.XoXXoX. XXX.X X.o X",
"XXX.XoXX.XoXXXoXXX.XoX .X oX.XoXXoXo XX. oXX.XoXXoX.X XX.X X.XXX",
"XXXXXoX.XXoX.XoXXX.XoXX. XXXXXXXXXXXoX.XXX XX XXX XXX .XXXoXXXoX",
"XoXXXXX.XXXX.XoXXXXXXXXX . XXXX  X.XoX.XX. XX .XX XXX.XXXXoXX oX",
"XoX X.XXX XXXXXXXo XX.$$$$$$$$$$$$.X.XXX .Xo.X.XoX.XX.XX.XX. XoX",
"XoX X.XXo XXoXXXXoX$$$$##########$$X.XX XXoX.X.XXoX.XXoX.X.X XXX",
"XXXXXXXoX XXXoX X.$$##############$XXoX XXoXX XXXoX. XoX X.XXoXX",
"X X.XXXoXXX.XoX $$$###############$$oX.oXX.XX XoXXXX XX XXXXo. X",
"X .XXXXXXXXX.XX$$##################$oX.XoX$$$$$$$$$XXX. XoXXo. X",
"X .X.XX .XXX.XX$###################$XXX$$$$#######$$$$$$oXXXX.XX",
"XXXXX. X$$$$oX$$##################$$$$$$###############$$X. XoXX",
"XXoXX. $$#$$$X$###################$#####################$X. XXoX",
"XoXX XX$####$$$###################@#####################$XX XXoX",
"XoX XXX$#####@@##################@@#####################$XXXXXXX",
"XXX XXX$######@@@################@######################$$XXXXXX",
"XXoX X.$########@@@##############@#######################$.XXXoX",
"XXo XX.$##########@@@@@@#########@######################$$X.XoXX",
"XXX XXX@########################@@######################$o .XoX ",
" X.XX o@@#######################@######################@$o XXXX ",
"X X.X oX@#######################@@####################@@XXXX. X ",
"X X.XXoX@#######+################@#################@@@@ .XX.X XX",
"XXoX XXX+++++++++#############################++++@@XX.X. X.XXXX",
"XoXX .@@+################################++++++####@@XXX XXXXo X",
"XoXXX@@#############################################@@XX .XX oX ",
"XXX.X@###############################################@@o.XX XXX ",
"XX.X+@################################################@++XX XXXX",
"XX.X+#################################################@@+X.oXX.X",
"X XX++################################++###############++ .XoX. ",
"X XXo++@############################+++################+XX XoX X",
"X XXXXX+++++++#####################++################+++XX XXX X",
"XXXXXX XoXXXO+++++##############+++++#############++++XXXXoXX XX",
"XoX.X XXoXXXo XXX++++++++++++++++###############+++XoX XXoX X XX",
"Xo.XX XXXX.XO .XX.OXo.OoX .XOXoX++++++++++++++++++XXXo XXo X. XX",
"XX.XXX.XX.XXO. XXX.Xo.OoX .X XoXXO.XX.XXXO.XXoXOXXX.XoXXXX X.XoX",
"XXXXoXX.X.X X.X X .X XXXXXXX XXXX XXoXX.XX.XXX XX .XXXX .XXoXXoX",
"oX.XXoX.XXo XXX X . XX X.XXX.XXXXX oXX.X XX X XXX .XXX X.XoXX oX",
"XoX.XoXXXoXXXXoXXXXOXX .XXOX.XoXXX oO . X.X X .XXXXXXX XXXoXX XX",
"XoX. XXXXoX.XOoXXXXO.X O XOXXXoXX.XXO XOX.X X.XXXXXX.XoXXXXXXXXX",
"XXXXX X.X XX.XXXX.X .XXOX XXO.XXXXOXXX.OXOXoX.XXXo XX.XoX. XX.X ",
"XoXXX .XXX X.XXXX. XXOoOX X .XX XXOX .XOoO oXXoXXoX X.XoX.X X. X",
"X oX.X.XX. XXXXXXX X.OoXX.X .XX oXO X.XoXO XOXoXXXX O.XXXXX X. X",
" XoX.XXXX.XXXXOXXXX.XO.XO.XXXXoXXoO XXXoX.XX.XO XXXXXXXX X.XXXXX",
" XXXXXXoX.OX.XOXXoX.XXX.O.XXXXoXXoX.XOXXXoXXX.X XXX.X oX .XXXXoX",
"X.XX XoXXXX X.XXXoOXXoX. XX.XX XXXX. XX.XXoX .X X .X oXX .X .XoX",
"X.XX XoXX X X.XXXXO XoXXO X.O XXX X. XX.XXoX XXXX .X oXXXXX .XXX",
"XXXX XXXX XXOXXXXXX XXXXX XXX XXX XXXXXXXXOXXOXXXXXXXXXXXXXXXXXX",
"XXXXXXXXXXXXXXXXXXXOXXOXXXXXXXXXXXOXXOXXXXOXXOXXXXXXXXXXXXX XXXX",
"XXXXoXXX.XXXXXXOXoXOXXOXXXXoXOXXXXOoXOXXX XXoXX OXX.XXX XoXX XXX",
"X .XoXoX.XoX.X XXoXOXX.XXX.XoOX.XXoX.XoXXX oX.X XX.XXo XXoXX oX ",
" X.XXXoX.XXoX. XXo.XoX.X OXXoXXX.XoX.XoX.O oX.XXXX.XoX .XoX.XoX ",
" XXX X.XXXXOX.XXXX.XoXX XOXXXX X.XXX XXXXOXXXX XXXXXoXX.XXX.XXX ",
"XXXX .X X.XOXXXOXXXXXXX XXoXX .XXXXXOXXXX.XO.X XXXXXXXX.XXX.XXXX",
"XXoXX.XX .X XX.OXXoXOX.XXoX.X .OXX.XXXOXXXoXX.XXXX .XX XXoXX .XX",
"XXXoXXXo X XXX.XXoXXOXX.XoXX.XXOXO.X .OXXo.XXOXXX XX.X XXoXX X.X",
"XXXoXXoXXX o.X XXo.oXX .XX X.XXX.OXX .OoXo.XXOXXX XX.XX.XXX.XX.X",
"XX.XXXoX.XXo. XXXXOXoX XXo OXX X.OXX XXoXO.X XX.XXXXXXX.XX.XXXXX",
"XXX.XXX.XXXOX XXXX.XoXOXXo XX. X.XXXXX XXOXX X.XXXXXXXXXXX.XX XX",
"XXX.X X.X XXXX.XXXXXXX.XXXXXX.XXXXoXX.X X.XXXX.XXXOXXX.XXoXXXX X",
"X XXX XXX X.XX.XOX X.X.OoX. X.Xo Xo.XOX .oX.XoXXXX.XoX.X XoX.X X",
"X XXX.XXoX.XXXXXX X.XXXoXX.X XoXX o.XXoX.XoX.XoXX XXoX. XXoX.XXX",
"X XXX.XXoX.XX XXX X.XXXoXXXX XoXX X.XXoXXXoX.XoXXX XXXX XXXXXXXX",
"XXXXXXXXXXXXX XXXXXXXXXXXXXXXXXXXXXXXXXXXXXXXXXXXX XXXXXXXXXXXXX"
};
