/* XPM */
static char *e73de73c05db40a38570c473a04e8d1bYe1DJKxrCbf3XAFb[] = {
/* columns rows colors chars-per-pixel */
"64 64 10 1 ",
"  c #3D7913",
". c #469C0B",
"X c #4EAD0C",
"o c #92E558",
"O c #3848A9",
"+ c #847E87",
"@ c #858186",
"# c #918B93",
"$ c #9D95A0",
"% c #98EDFF",
/* pixels */
"XXXXXXX XXXXXXXXXX XXXXXXXXXXXXXXXXXXXXXXXXXXXXXXXXXXXoXXXXXXXXX",
"XX.XX XX XXXX.X XX XXXX XXXoXXXoXX. X.X XXX.XoXXXoXX.XoXX X.Xo X",
"XXX.X XX XXoX.X X.XoXX X.XoX.XoXXo.X .XX oXX.XoXXoX. XXX.X X.o X",
"XXX.XoXX.XoXXXoXXX.XoX .X oX.XoXXoXo XX. oXX.XoXXoX.X XX.X X.XXX",
"XXXXXoX.XXoX.XoXXX.XoXX. XXXXXXXXXXXoX.XXX XX XXX XXX .XXXoXXXoX",
"XoXXXXX.XXXX.XoXXXXXXXX$$$$$$$$$$$$$$X.XX. XX .XX XXX.XXXXoXX oX",
"XoX X.XXX XXXXXXXo X$$$$############$$XX .Xo.X.XoX.XX.XX.XX. XoX",
"XoX X.XXo XXoXXXXoX$$################$X XXoX.X.XXoX.XXoX.X.X XXX",
"XXXXXXXoX XXXoX X$$$#################$$ XXoXX XXXoX. XoX X.XXoXX",
"X X.XXXoXXX.XoX X$####################$oXX.XX XoXXXX XX XXXXo. X",
"X .XXXXXXXXX.XX $#####################$XoX.X$$$$$$$$$X. XoXXo. X",
"X .X.XX .XXX.XXX$####################$$$$$$$$#######$$$$$$XXX.XX",
"XXXXX. X.$$$$XX$$####################$###$###############$$ XoXX",
"XXoXX. X$$#$$$ $#####################@####################$ XXoX",
"XoXX XXX$####$$$####################@@####################$ XXoX",
"XoX XXXX$#####@@#@##################@#####################$XXXXX",
"XXX XXXX$######@@@@@################@#####################$$XXXX",
"XXoX X.X$##########@@@@@@###########@######################$XXoX",
"XXo XX. $##########################@@#####################$$XoXX",
"XXX XXX @##########################@######################$.XoX ",
" X.XX o X@#########################@@####################@$XXXX ",
"X X.X oXX@#######+##################@###################@@XX. X ",
"X X.XXoX.+++++++++###################################@@@@XX.X XX",
"XXoX XX@@+######################################++++@@.X. X.XXXX",
"XoXX .@@###################################++++++####@@X XXXXo X",
"XoXXX.@###############################################@@@@XX oX ",
"XXX.X+@##################################################@X XXX ",
"XX.XX+@###################################################++XXXX",
"XX.XXo+++##################################################+XX.X",
"X XXoXX ++###############################++###############++oX. ",
"X XXoXX X++############################+++################+XoX X",
"X XXXXXXXX+++++#######################++################+++XXX X",
"XXXXXX XoXXXOX+++++################+++++#############++++XoXX XX",
"XoX.X XXoXXOo %XXX++++++++++++++++++###############+++ XXoX X XX",
"Xo.XX XXXX.Xo %%XOXXo.XoX OX XoXXo.++++++++++++++++++o XXo X. XX",
"XX.XXX.XX.XXX. %XO.Xo.XoX .X XoXXo.XXOXX%X.XOoX.XXX.XoXXXX X.XoX",
"XXXXoXX.X.X X.X%% .X XXXXXXX XXXX XXoXX%%X.XOX XX .XXXX .XXoXXoX",
"oX.XXoX.XXo XX%%% . XX X.XXXOXOXXX oXX.% XX X XXX .XXX X.XoXX oX",
"XoX.XoXXXoXXXX%X%%X XX .XXoX.XOXXX oX %%X.X X .XXOXXXX XXXoXX XX",
"XoX. XXXXoXOXX%XX%%%%X . OoXXXoXXOXXX %%%.X X.XOXXXX.XoXXXXXXXXX",
"XXXXX X.X XO.%%XX%X %%XoX XXX.XXXX.XO%%X%XXoX.XXXo XX.XoX. XX.X ",
"XoXXX .XXX O.%XXX%%XX%%XX X .XO XX.X%%XX%% oXXoXXoX X.XoX.X X. X",
"X oX.X.XX. X%%XXXX%X.X%XX.X .XO oXX%%.XoX. XXXoXXXX X.XXXXX X. X",
" XoX.XXXX.X%%X XXX%%XX.XXOXXXXoXXoX%XXXoX.XX.XX XXXXXXXX X.XXXXX",
" XXXXXXoX.X%.X XXoX%%XX.X.XXOXoXX%%%% XXXoXXX.X XXX.X oX .XXXXoX",
"X.XX XoXXXX O.XXXo X%%X. XX.XX XX%X.%%X.XXoX .X X .X oXX .X .XoX",
"X.XX XoXX X O.XXXXX X%XXX X.X XX%%X. %X.XOoX XXOX .X oXXXXX .XXX",
"XXXX XXXX XXXXXXXXO%%%%XXOXXX XO% XOX%%XXXXXXXXOXXXXXXXXXXXXXXXX",
"XXXXXXXXXXOXXXXXXX%%XX%XXOXXXXXOXXXX%%%%XXXXXXXOXXXXXXXXXXX XXXX",
"XXXXoXXX.XOXXXX Xo%XXX%%XXXoXXXXXXX%%XO%% XXoXX XXX.XXX XoXX XXX",
"X .XoXoX.XoX.X XX%%.XX.%XX.XoXX.XXo%OXoX%% oX.X XXOXXo XXoXX oX ",
" X.XXXoX.XXoX. XX%.XoX.%%.XXoXXX.X%%.XoX.%%oX.XXXXOXoX .XoX.XoX ",
" XXX X.XXXXoX.XX%%.XoXX %%XXXX X.%%X XXXO.%%XX XXXOXoXX.XXX.XXX ",
"XXXX .X X.XXOXXX%XXXXXO X%oXX .XX%OX XXXO.X%.X XXXXXXXX.XXX.XXXX",
"XXoXX.XX .X OX.%%XoX.XO%%%%.X .XX%OXXX.XXXo%%.XXXX .XX XXoXX .XX",
"XXXoXXXo X XXX.%XoXX.X%%Xo%X.XXOX%%% .XXXo.X%.XXX XX.X XXoXX X.X",
"XXXoXXoXXX o.X %Xo.oXX%.XX%%.XXO.%X%%%XoXo.XX XOX XX.XX.XXX.XX.X",
"XX.XXXoX.XXo. XOXX.Xo% OXo %XX X.%XX %%%XX.X XXOXXXXXXX.XX.XXXXX",
"XXX.XXX.XXXXX XOXX.X%%XXXo %%. X.%%XXX %%%XX X.XXXXXXXXXXX.XX XX",
"XXX.X X.X XXXX.OXXX%%X.XXOXX%.XXXX%XX.X X.XXXX.XXX.XXX.XXoXXXX X",
"X XXX XXX X.XX.XXX%%.X.XoX. %.XO X%%X.X .oX.XoXXXX.XoX.X XoX.X X",
"X XXX.XXoX.XXXXXX %.XXXoXX.X XoOX o%XXoX.XoX.XoXX XXoX. XXoX.XXX",
"X XXX.XXoX.XX XXX X.XXXoXXXX XoXX X%%XoXXXoX.XoXXX XXXX XXXXXXXX",
"XXXXXXXXXXXXX XXXXXXXXXXXXXXXXXXXXXX%XXXXXXXXXXXXX XXXXXXXXXXXXX"
};
