/* XPM */
static char *_34f8382f0744a3cd9602f2212201caenPT7Xm0O7MeO1gky[] = {
/* columns rows colors chars-per-pixel */
"64 64 9 1 ",
"  c #3A7A0B",
". c #449D03",
"X c #4DAF04",
"o c #93E657",
"O c #3546AB",
"+ c #857F88",
"@ c #868287",
"# c #928C94",
"$ c #9E96A1",
/* pixels */
"XXXXXXX XXXXXXXXXX XXXXXXXXXXXXXXXXXXXXXXXXXXXXXXXXXXXoXXXXXXXXX",
"XX.XX XX XXXX.X XX XXXX XXXoXXXoXX. X.X XXX.XoXXXoXX.XoXX X.Xo X",
"XXX.X XX XXoX.X X.XoXX X.XoX.XoXXo.X .XX oXX.XoXXoX. XXX.X X.o X",
"XXX.XoXX.XoXXXoXXX.XoX .X oX.XoXXoXo XX. oXX.XoXXoX.X XX.X X.XXX",
"XXXXXoX.XXoX.XoXXX.XoX$$$$$$$$$$$$$$oX.XXX XX XXX XXX .XXXoXXXoX",
"XoXXXXX.XXXX.XoXXXX$$$$############$$X.XX. XX .XX XXX.XXXXoXX oX",
"XoX X.XXX XXXXXXXo$$################$XXX .Xo.X.XoX.XX.XX.XX. XoX",
"XoX X.XXo XXoXXX$$$#################$$X XXoX.X.XXoX.XXoX.X.X XXX",
"XXXXXXXoX XXXoX$$####################$X XXoX$$$$$$$$$XoX X.XXoXX",
"X X.XXXoXXX.XoX$#####################$.oX$$$$#######$$$$$$XXo. X",
"X .XXXXX$$$$.X$$####################$$$$$$###############$$Xo. X",
"X .X.XX$$#$$$X$#####################$#####################$XX.XX",
"XXXXX. $####$$$#####################@#####################$ XoXX",
"XXoXX. $#####@@####################@@#####################$ XXoX",
"XoXX XX$######@@@##################@######################$$XXoX",
"XoX XXX$########@@@################@#######################$XXXX",
"XXX XXX$##########@@@@@@###########@######################$$XXXX",
"XXoX X.@##########################@@######################$XXXoX",
"XXo XX.@@#########################@######################@$.XoXX",
"XXX XXX @#########################@@####################@@ .XoX ",
" X.XX o @#######+##################@#################@@@@o XXXX ",
"X X.X oX+++++++++###############################++++@@X XXXX. X ",
"X X.XX@@+##################################++++++####@@ .XX.X XX",
"XXoX @@###############################################@@. X.XXXX",
"XoXX @#################################################@@XXXXo X",
"XoXX+@##################################################@.XX oX ",
"XXX.+###################################################@@X XXX ",
"XX.X++###################################################++ XXXX",
"XX.XX+++##################################################+oXX.X",
"X XXoXX++###############################++###############++XoX. ",
"X XXoXX ++############################+++################+ XoX X",
"X XXXXXXX+++++#######################++################+++ XXX X",
"XXXXXX XoXXXX+++++################+++++#############++++XXoXX XX",
"XoX.X XXoXXXo XXO++++++++++++++++++###############+++X XXoX X XX",
"Xo.XX XXXX.Xo .XX.XXo.OoXO.X XoOXo++++++++++++++++++Xo XXo X. XX",
"XX.XXX.XX.XXX. XXX.Xo.OoX .X XoXXo.XX.XOXX.XXoO.XXX.XoXXXX X.XoX",
"XXXXoXX.X.X X.XOX .O XXXXXXX XXXX XXoXX.XX.XXXOXX .XXXX .XXoXXoX",
"oX.XXoX.XXoOXXXOX .OXX X.XOX.XXXOX oXX.X XX O XXX .XXX X.XoXX oX",
"XoX.XoXXXoXOXXoXXXX XX .XXOX.XoXOX oO . XOX O .XXXXXXX XXXoXX XX",
"XoX. XXXXoX.XXoXXXXX.XO. XoXXXoXO.XXO XOXOX O.XOXXXX.XoXXXXXXXXX",
"XXXXX X.X XX.XXXX.XO.XOoXOXXXOXXXX.XXX.OXOXoX.XXXo XX.XoX. XX.X ",
"XoXXX .XXX X.XXOX. OXXOXXOX .XX XX.X .XXoX oXXoXXoX X.XoX.X X. X",
"X oX.X.XX. OXXXOXX X.XoXX.X .XX oXO X.XOX. XXXoXXXX X.XXXXX X. X",
" XoX.XXXX.XOXX XXXX.XX.XX.XOXXOXXoO XXXoX.XX.OX XXXXXXXX X.XXXXX",
" XXXXXXoX.XO.X XXoX.XXX.X.XXXXOXXoO.X XXXoXXX.X XXX.X oX .XXXXoX",
"X.XX XoXXXX X.XXXo XXOX. OX.XX XXXX. OX.XXOX .X O .X oXX .X .XoX",
"X.XX XoXX X X.XXXOX XoXXX X.X XXX X. XX.XXOX XOXO .X oXXXXX .XXX",
"XXXX XXXX XXXOXXXOX XXXXX XXO XXX XXXXXOXXXXXXXXOXXXXXXXXXXXXXXX",
"XXXXXXXXXXXXXOXXXXXXXXOXXXXXOXXOXXOXXXXOXXXXXXXXXXXXXXXXXXX XXXX",
"XXXXoXXX.XXXXOX OoXXOXXXXXXoXXXOXXOoXXXXX XXoXX XXX.XXX XoXX XXX",
"X .XoXoX.XoX.X XXoX.XX.XXX.XoXXOXXoX.XoXXX oXOX XX.XXo XXoXX oX ",
" X.XXXoX.XXOX. XXo.XoX.X OXXOXXX.XoX.OoX.O oXOXXXX.XoX .XoX.XoX ",
" XXX X.XXXXOX.XXXXOXoXX X.XXOX X.XXX OXXXOXXXX XXXXXoXX.XXX.XXX ",
"XXXX .X X.XOXXXXXXOXXOX XXoXO .XXXXX XXXX.XX.XOXXXXXXXX.XXX.XXXX",
"XXoXX.XX .X XX.XXXOX.O.XXoX.X .XXXOXXX.XXXoXX.XXXX .XX XXoXX .XX",
"XXXoXXXo X XXXOXXoXX.XX.XoOX.XXXXXOX .OXXo.XX.XXXOXX.X XXoXX X.X",
"XXXoXXoXXX o.XOXXo.oXX .XXOX.XOX.XOX .XoXoOXXOXXX XX.XX.XXX.XX.X",
"XX.XXXoX.XXo. OXXX.XoX XXo XXX X.XXX XXoXXOX XX.XXXXXXX.XX.XXXXX",
"XXX.XXX.XXXXX XXXO.XoXXXXo XX. X.XXOXX OXXXX X.XXXXXXXXXXX.XX XX",
"XXX.X X.X XXXX.XXXXXXX.OXXXXX.XOXXoOX.X X.XXXX.OXX.XXX.XXoXXXX X",
"X XXX XXX XOXX.XXX XOX.XoX. O.Xo Xo.X.X .oX.XoXOXX.XoX.X XoX.X X",
"X XXX.XXoX.XXXXXX X.OXXoXX.XOXoXX o.XXoX.XoO.XoOX XXoX. XXoX.XXX",
"X XXX.XXoX.XX XXX X.XXXoXXXX XoXX X.XXoXXXoX.XoXXX XXXX XXXXXXXX",
"XXXXXXXXXXXXX XXXXXXXXXXXXXXXXXXXXXXXXXXXXXXXXXXXX XXXXXXXXXXXXX"
};
